<?xml version="1.0" encoding="utf-8" standalone="no"?>
<!DOCTYPE svg PUBLIC "-//W3C//DTD SVG 1.1//EN"
  "http://www.w3.org/Graphics/SVG/1.1/DTD/svg11.dtd">
<svg xmlns:xlink="http://www.w3.org/1999/xlink" width="474.705234pt" height="219.387348pt" viewBox="0 0 474.705234 219.387348" xmlns="http://www.w3.org/2000/svg" version="1.1">
 <metadata>
  <rdf:RDF xmlns:dc="http://purl.org/dc/elements/1.1/" xmlns:cc="http://creativecommons.org/ns#" xmlns:rdf="http://www.w3.org/1999/02/22-rdf-syntax-ns#">
   <cc:Work>
    <dc:type rdf:resource="http://purl.org/dc/dcmitype/StillImage"/>
    <dc:date>2026-03-12T17:55:33.796745</dc:date>
    <dc:format>image/svg+xml</dc:format>
    <dc:creator>
     <cc:Agent>
      <dc:title>Matplotlib v3.10.8, https://matplotlib.org/</dc:title>
     </cc:Agent>
    </dc:creator>
   </cc:Work>
  </rdf:RDF>
 </metadata>
 <defs>
  <style type="text/css">*{stroke-linejoin: round; stroke-linecap: butt}</style>
 </defs>
 <g id="figure_1">
  <g id="patch_1">
   <path d="M 0 219.387348 
L 474.705234 219.387348 
L 474.705234 0 
L 0 0 
z
" style="fill: #ffffff"/>
  </g>
  <g id="axes_1">
   <g id="patch_2">
    <path d="M 32.625234 185.616 
L 213.815317 185.616 
L 213.815317 28.944 
L 32.625234 28.944 
z
" style="fill: #ffffff"/>
   </g>
   <g id="matplotlib.axis_1">
    <g id="xtick_1">
     <g id="line2d_1"/>
     <g id="text_1">
      <!-- Soft -->
      <g transform="translate(56.256365 193.757406) scale(0.065 -0.065)">
       <defs>
        <path id="HelveticaNeue-53" d="M 3142 3232 
L 3718 3232 
Q 3706 3610 3574 3882 
Q 3443 4154 3216 4333 
Q 2989 4512 2688 4595 
Q 2387 4678 2035 4678 
Q 1722 4678 1424 4598 
Q 1126 4518 892 4355 
Q 659 4192 518 3939 
Q 378 3686 378 3341 
Q 378 3027 502 2819 
Q 627 2611 835 2480 
Q 1043 2349 1305 2269 
Q 1568 2189 1840 2128 
Q 2112 2067 2374 2009 
Q 2637 1952 2845 1859 
Q 3053 1766 3177 1619 
Q 3302 1472 3302 1235 
Q 3302 986 3200 826 
Q 3098 666 2931 573 
Q 2765 480 2557 441 
Q 2349 403 2144 403 
Q 1888 403 1645 467 
Q 1402 531 1219 665 
Q 1037 800 925 1008 
Q 813 1216 813 1504 
L 237 1504 
Q 237 1088 387 784 
Q 538 480 797 285 
Q 1056 90 1398 -6 
Q 1741 -102 2125 -102 
Q 2438 -102 2755 -28 
Q 3072 45 3328 208 
Q 3584 371 3747 630 
Q 3910 890 3910 1254 
Q 3910 1594 3785 1818 
Q 3661 2042 3453 2189 
Q 3245 2336 2982 2422 
Q 2720 2509 2448 2573 
Q 2176 2637 1913 2691 
Q 1651 2746 1443 2829 
Q 1235 2912 1110 3043 
Q 986 3174 986 3386 
Q 986 3610 1072 3760 
Q 1158 3910 1302 4000 
Q 1446 4090 1632 4128 
Q 1818 4166 2010 4166 
Q 2483 4166 2787 3945 
Q 3091 3725 3142 3232 
z
" transform="scale(0.015625)"/>
        <path id="HelveticaNeue-6f" d="M 806 1651 
Q 806 1952 886 2185 
Q 966 2419 1107 2579 
Q 1248 2739 1437 2822 
Q 1626 2906 1837 2906 
Q 2048 2906 2237 2822 
Q 2426 2739 2566 2579 
Q 2707 2419 2787 2185 
Q 2867 1952 2867 1651 
Q 2867 1350 2787 1116 
Q 2707 883 2566 726 
Q 2426 570 2237 486 
Q 2048 403 1837 403 
Q 1626 403 1437 486 
Q 1248 570 1107 726 
Q 966 883 886 1116 
Q 806 1350 806 1651 
z
M 230 1651 
Q 230 1286 332 972 
Q 435 659 640 425 
Q 845 192 1145 61 
Q 1446 -70 1837 -70 
Q 2234 -70 2531 61 
Q 2829 192 3033 425 
Q 3238 659 3340 972 
Q 3443 1286 3443 1651 
Q 3443 2016 3340 2333 
Q 3238 2650 3033 2883 
Q 2829 3117 2531 3251 
Q 2234 3386 1837 3386 
Q 1446 3386 1145 3251 
Q 845 3117 640 2883 
Q 435 2650 332 2333 
Q 230 2016 230 1651 
z
" transform="scale(0.015625)"/>
        <path id="HelveticaNeue-66" d="M 634 2829 
L 634 0 
L 1178 0 
L 1178 2829 
L 1818 2829 
L 1818 3309 
L 1178 3309 
L 1178 3770 
Q 1178 3987 1286 4064 
Q 1395 4141 1594 4141 
Q 1664 4141 1747 4131 
Q 1830 4122 1901 4096 
L 1901 4570 
Q 1824 4595 1725 4608 
Q 1626 4621 1549 4621 
Q 1101 4621 867 4413 
Q 634 4205 634 3802 
L 634 3309 
L 77 3309 
L 77 2829 
L 634 2829 
z
" transform="scale(0.015625)"/>
        <path id="HelveticaNeue-74" d="M 1165 3309 
L 1165 4301 
L 621 4301 
L 621 3309 
L 58 3309 
L 58 2829 
L 621 2829 
L 621 723 
Q 621 493 665 352 
Q 710 211 803 134 
Q 896 58 1046 29 
Q 1197 0 1408 0 
L 1824 0 
L 1824 480 
L 1574 480 
Q 1446 480 1366 489 
Q 1286 499 1241 531 
Q 1197 563 1181 620 
Q 1165 678 1165 774 
L 1165 2829 
L 1824 2829 
L 1824 3309 
L 1165 3309 
z
" transform="scale(0.015625)"/>
       </defs>
       <use xlink:href="#HelveticaNeue-53"/>
       <use xlink:href="#HelveticaNeue-6f" transform="translate(64.799988 0)"/>
       <use xlink:href="#HelveticaNeue-66" transform="translate(122.199982 0)"/>
       <use xlink:href="#HelveticaNeue-74" transform="translate(151.799973 0)"/>
      </g>
     </g>
    </g>
    <g id="xtick_2">
     <g id="line2d_2"/>
     <g id="text_2">
      <!-- Mix -->
      <g transform="translate(178.991491 193.757406) scale(0.065 -0.065)">
       <defs>
        <path id="HelveticaNeue-4d" d="M 512 4570 
L 512 0 
L 1088 0 
L 1088 3802 
L 1101 3802 
L 2528 0 
L 3046 0 
L 4474 3802 
L 4486 3802 
L 4486 0 
L 5062 0 
L 5062 4570 
L 4230 4570 
L 2784 730 
L 1344 4570 
L 512 4570 
z
" transform="scale(0.015625)"/>
        <path id="HelveticaNeue-69" d="M 986 3904 
L 986 4570 
L 442 4570 
L 442 3904 
L 986 3904 
z
M 442 3309 
L 442 0 
L 986 0 
L 986 3309 
L 442 3309 
z
" transform="scale(0.015625)"/>
        <path id="HelveticaNeue-78" d="M 1299 1741 
L 58 0 
L 717 0 
L 1638 1370 
L 2560 0 
L 3258 0 
L 1978 1786 
L 3117 3309 
L 2464 3309 
L 1638 2150 
L 845 3309 
L 147 3309 
L 1299 1741 
z
" transform="scale(0.015625)"/>
       </defs>
       <use xlink:href="#HelveticaNeue-4d"/>
       <use xlink:href="#HelveticaNeue-69" transform="translate(87.099991 0)"/>
       <use xlink:href="#HelveticaNeue-78" transform="translate(109.299988 0)"/>
      </g>
     </g>
    </g>
   </g>
   <g id="matplotlib.axis_2">
    <g id="ytick_1">
     <g id="line2d_3">
      <defs>
       <path id="m3a3ed6182b" d="M 0 0 
L -2.5 0 
" style="stroke: #000000; stroke-width: 0.6"/>
      </defs>
      <g>
       <use xlink:href="#m3a3ed6182b" x="32.625234" y="185.616" style="stroke: #000000; stroke-width: 0.6"/>
      </g>
     </g>
     <g id="text_3">
      <!-- 0.00 -->
      <g transform="translate(13.977656 187.936703) scale(0.065 -0.065)">
       <defs>
        <path id="HelveticaNeue-30" d="M 845 2234 
Q 845 2400 848 2601 
Q 851 2803 880 3004 
Q 909 3206 963 3398 
Q 1018 3590 1123 3734 
Q 1229 3878 1389 3968 
Q 1549 4058 1779 4058 
Q 2010 4058 2170 3968 
Q 2330 3878 2435 3734 
Q 2541 3590 2595 3398 
Q 2650 3206 2678 3004 
Q 2707 2803 2710 2601 
Q 2714 2400 2714 2234 
Q 2714 1978 2698 1661 
Q 2682 1344 2595 1065 
Q 2509 787 2317 595 
Q 2125 403 1779 403 
Q 1434 403 1242 595 
Q 1050 787 963 1065 
Q 877 1344 861 1661 
Q 845 1978 845 2234 
z
M 269 2227 
Q 269 1978 281 1709 
Q 294 1440 345 1184 
Q 397 928 493 701 
Q 589 474 755 301 
Q 922 128 1174 29 
Q 1427 -70 1779 -70 
Q 2138 -70 2387 29 
Q 2637 128 2803 301 
Q 2970 474 3066 701 
Q 3162 928 3213 1184 
Q 3264 1440 3277 1709 
Q 3290 1978 3290 2227 
Q 3290 2477 3277 2745 
Q 3264 3014 3213 3270 
Q 3162 3526 3066 3756 
Q 2970 3987 2803 4160 
Q 2637 4333 2384 4435 
Q 2131 4538 1779 4538 
Q 1427 4538 1174 4435 
Q 922 4333 755 4160 
Q 589 3987 493 3756 
Q 397 3526 345 3270 
Q 294 3014 281 2745 
Q 269 2477 269 2227 
z
" transform="scale(0.015625)"/>
        <path id="HelveticaNeue-2e" d="M 531 710 
L 531 0 
L 1242 0 
L 1242 710 
L 531 710 
z
" transform="scale(0.015625)"/>
       </defs>
       <use xlink:href="#HelveticaNeue-30"/>
       <use xlink:href="#HelveticaNeue-2e" transform="translate(55.599991 0)"/>
       <use xlink:href="#HelveticaNeue-30" transform="translate(83.399979 0)"/>
       <use xlink:href="#HelveticaNeue-30" transform="translate(138.999969 0)"/>
      </g>
     </g>
    </g>
    <g id="ytick_2">
     <g id="line2d_4">
      <g>
       <use xlink:href="#m3a3ed6182b" x="32.625234" y="166.161128" style="stroke: #000000; stroke-width: 0.6"/>
      </g>
     </g>
     <g id="text_4">
      <!-- 0.20 -->
      <g transform="translate(13.977656 168.481831) scale(0.065 -0.065)">
       <defs>
        <path id="HelveticaNeue-32" d="M 282 2931 
L 826 2931 
Q 819 3136 867 3337 
Q 915 3539 1024 3699 
Q 1133 3859 1302 3958 
Q 1472 4058 1709 4058 
Q 1888 4058 2048 4000 
Q 2208 3942 2326 3833 
Q 2445 3725 2515 3574 
Q 2586 3424 2586 3238 
Q 2586 3002 2512 2822 
Q 2438 2643 2294 2489 
Q 2150 2336 1932 2185 
Q 1715 2035 1427 1856 
Q 1190 1715 972 1555 
Q 755 1395 582 1184 
Q 410 973 298 688 
Q 186 403 154 0 
L 3117 0 
L 3117 480 
L 787 480 
Q 826 691 950 854 
Q 1075 1018 1251 1158 
Q 1427 1299 1638 1424 
Q 1850 1549 2061 1677 
Q 2272 1811 2470 1958 
Q 2669 2106 2822 2288 
Q 2976 2470 3069 2700 
Q 3162 2931 3162 3232 
Q 3162 3552 3050 3795 
Q 2938 4038 2746 4201 
Q 2554 4365 2294 4451 
Q 2035 4538 1741 4538 
Q 1382 4538 1100 4416 
Q 819 4294 630 4080 
Q 442 3866 352 3571 
Q 262 3277 282 2931 
z
" transform="scale(0.015625)"/>
       </defs>
       <use xlink:href="#HelveticaNeue-30"/>
       <use xlink:href="#HelveticaNeue-2e" transform="translate(55.599991 0)"/>
       <use xlink:href="#HelveticaNeue-32" transform="translate(83.399979 0)"/>
       <use xlink:href="#HelveticaNeue-30" transform="translate(138.999969 0)"/>
      </g>
     </g>
    </g>
    <g id="ytick_3">
     <g id="line2d_5">
      <g>
       <use xlink:href="#m3a3ed6182b" x="32.625234" y="146.706256" style="stroke: #000000; stroke-width: 0.6"/>
      </g>
     </g>
     <g id="text_5">
      <!-- 0.40 -->
      <g transform="translate(13.977656 149.026959) scale(0.065 -0.065)">
       <defs>
        <path id="HelveticaNeue-34" d="M 2170 1542 
L 646 1542 
L 2157 3763 
L 2170 3763 
L 2170 1542 
z
M 2682 1542 
L 2682 4538 
L 2246 4538 
L 179 1587 
L 179 1062 
L 2170 1062 
L 2170 0 
L 2682 0 
L 2682 1062 
L 3296 1062 
L 3296 1542 
L 2682 1542 
z
" transform="scale(0.015625)"/>
       </defs>
       <use xlink:href="#HelveticaNeue-30"/>
       <use xlink:href="#HelveticaNeue-2e" transform="translate(55.599991 0)"/>
       <use xlink:href="#HelveticaNeue-34" transform="translate(83.399979 0)"/>
       <use xlink:href="#HelveticaNeue-30" transform="translate(138.999969 0)"/>
      </g>
     </g>
    </g>
    <g id="ytick_4">
     <g id="line2d_6">
      <g>
       <use xlink:href="#m3a3ed6182b" x="32.625234" y="127.251384" style="stroke: #000000; stroke-width: 0.6"/>
      </g>
     </g>
     <g id="text_6">
      <!-- 0.60 -->
      <g transform="translate(13.977656 129.572087) scale(0.065 -0.065)">
       <defs>
        <path id="HelveticaNeue-36" d="M 2650 3379 
L 3194 3379 
Q 3142 3942 2809 4240 
Q 2477 4538 1914 4538 
Q 1427 4538 1107 4333 
Q 787 4128 595 3789 
Q 403 3450 323 3011 
Q 243 2573 243 2106 
Q 243 1747 297 1363 
Q 352 979 518 659 
Q 685 339 992 134 
Q 1299 -70 1805 -70 
Q 2234 -70 2525 74 
Q 2816 218 2992 438 
Q 3168 659 3245 928 
Q 3322 1197 3322 1446 
Q 3322 1760 3226 2029 
Q 3130 2298 2954 2496 
Q 2778 2694 2518 2806 
Q 2259 2918 1933 2918 
Q 1562 2918 1277 2777 
Q 992 2637 800 2323 
L 787 2336 
Q 794 2598 838 2899 
Q 883 3200 1001 3459 
Q 1120 3718 1331 3888 
Q 1542 4058 1888 4058 
Q 2214 4058 2412 3872 
Q 2611 3686 2650 3379 
z
M 1830 2438 
Q 2061 2438 2233 2355 
Q 2406 2272 2521 2134 
Q 2637 1997 2691 1808 
Q 2746 1619 2746 1408 
Q 2746 1210 2685 1027 
Q 2624 845 2509 704 
Q 2394 563 2224 483 
Q 2054 403 1830 403 
Q 1606 403 1430 483 
Q 1254 563 1136 697 
Q 1018 832 954 1017 
Q 890 1203 890 1414 
Q 890 1626 950 1814 
Q 1011 2003 1132 2140 
Q 1254 2278 1427 2358 
Q 1600 2438 1830 2438 
z
" transform="scale(0.015625)"/>
       </defs>
       <use xlink:href="#HelveticaNeue-30"/>
       <use xlink:href="#HelveticaNeue-2e" transform="translate(55.599991 0)"/>
       <use xlink:href="#HelveticaNeue-36" transform="translate(83.399979 0)"/>
       <use xlink:href="#HelveticaNeue-30" transform="translate(138.999969 0)"/>
      </g>
     </g>
    </g>
    <g id="ytick_5">
     <g id="line2d_7">
      <g>
       <use xlink:href="#m3a3ed6182b" x="32.625234" y="107.796512" style="stroke: #000000; stroke-width: 0.6"/>
      </g>
     </g>
     <g id="text_7">
      <!-- 0.80 -->
      <g transform="translate(13.977656 110.117215) scale(0.065 -0.065)">
       <defs>
        <path id="HelveticaNeue-38" d="M 992 3360 
Q 992 3533 1056 3661 
Q 1120 3789 1225 3878 
Q 1331 3968 1478 4013 
Q 1626 4058 1786 4058 
Q 2118 4058 2332 3882 
Q 2547 3706 2547 3360 
Q 2547 3014 2336 2822 
Q 2125 2630 1798 2630 
Q 1632 2630 1485 2675 
Q 1338 2720 1229 2809 
Q 1120 2899 1056 3036 
Q 992 3174 992 3360 
z
M 416 3379 
Q 416 3072 589 2813 
Q 762 2554 1050 2438 
Q 666 2304 461 2006 
Q 256 1709 256 1306 
Q 256 960 374 701 
Q 493 442 701 269 
Q 909 96 1190 13 
Q 1472 -70 1798 -70 
Q 2112 -70 2387 19 
Q 2662 109 2864 285 
Q 3066 461 3184 717 
Q 3302 973 3302 1306 
Q 3302 1728 3104 2019 
Q 2906 2310 2496 2438 
Q 2784 2566 2953 2819 
Q 3123 3072 3123 3379 
Q 3123 3597 3046 3805 
Q 2970 4013 2806 4176 
Q 2643 4339 2380 4438 
Q 2118 4538 1747 4538 
Q 1485 4538 1245 4461 
Q 1005 4384 819 4237 
Q 634 4090 525 3875 
Q 416 3661 416 3379 
z
M 832 1280 
Q 832 1478 905 1638 
Q 979 1798 1110 1913 
Q 1242 2029 1418 2089 
Q 1594 2150 1792 2150 
Q 1984 2150 2153 2083 
Q 2323 2016 2451 1901 
Q 2579 1786 2652 1629 
Q 2726 1472 2726 1286 
Q 2726 1094 2659 934 
Q 2592 774 2467 656 
Q 2342 538 2172 470 
Q 2003 403 1798 403 
Q 1376 403 1104 636 
Q 832 870 832 1280 
z
" transform="scale(0.015625)"/>
       </defs>
       <use xlink:href="#HelveticaNeue-30"/>
       <use xlink:href="#HelveticaNeue-2e" transform="translate(55.599991 0)"/>
       <use xlink:href="#HelveticaNeue-38" transform="translate(83.399979 0)"/>
       <use xlink:href="#HelveticaNeue-30" transform="translate(138.999969 0)"/>
      </g>
     </g>
    </g>
    <g id="ytick_6">
     <g id="line2d_8">
      <g>
       <use xlink:href="#m3a3ed6182b" x="32.625234" y="88.34164" style="stroke: #000000; stroke-width: 0.6"/>
      </g>
     </g>
     <g id="text_8">
      <!-- 1.00 -->
      <g transform="translate(13.977656 90.662343) scale(0.065 -0.065)">
       <defs>
        <path id="HelveticaNeue-31" d="M 2278 0 
L 2278 4538 
L 1862 4538 
Q 1818 4282 1696 4115 
Q 1574 3949 1398 3853 
Q 1222 3757 1004 3721 
Q 787 3686 557 3686 
L 557 3251 
L 1734 3251 
L 1734 0 
L 2278 0 
z
" transform="scale(0.015625)"/>
       </defs>
       <use xlink:href="#HelveticaNeue-31"/>
       <use xlink:href="#HelveticaNeue-2e" transform="translate(55.599991 0)"/>
       <use xlink:href="#HelveticaNeue-30" transform="translate(83.399979 0)"/>
       <use xlink:href="#HelveticaNeue-30" transform="translate(138.999969 0)"/>
      </g>
     </g>
    </g>
    <g id="ytick_7">
     <g id="line2d_9">
      <g>
       <use xlink:href="#m3a3ed6182b" x="32.625234" y="68.886767" style="stroke: #000000; stroke-width: 0.6"/>
      </g>
     </g>
     <g id="text_9">
      <!-- 1.20 -->
      <g transform="translate(13.977656 71.207471) scale(0.065 -0.065)">
       <use xlink:href="#HelveticaNeue-31"/>
       <use xlink:href="#HelveticaNeue-2e" transform="translate(55.599991 0)"/>
       <use xlink:href="#HelveticaNeue-32" transform="translate(83.399979 0)"/>
       <use xlink:href="#HelveticaNeue-30" transform="translate(138.999969 0)"/>
      </g>
     </g>
    </g>
    <g id="ytick_8">
     <g id="line2d_10">
      <g>
       <use xlink:href="#m3a3ed6182b" x="32.625234" y="49.431895" style="stroke: #000000; stroke-width: 0.6"/>
      </g>
     </g>
     <g id="text_10">
      <!-- 1.40 -->
      <g transform="translate(13.977656 51.752598) scale(0.065 -0.065)">
       <use xlink:href="#HelveticaNeue-31"/>
       <use xlink:href="#HelveticaNeue-2e" transform="translate(55.599991 0)"/>
       <use xlink:href="#HelveticaNeue-34" transform="translate(83.399979 0)"/>
       <use xlink:href="#HelveticaNeue-30" transform="translate(138.999969 0)"/>
      </g>
     </g>
    </g>
    <g id="ytick_9">
     <g id="line2d_11">
      <g>
       <use xlink:href="#m3a3ed6182b" x="32.625234" y="29.977023" style="stroke: #000000; stroke-width: 0.6"/>
      </g>
     </g>
     <g id="text_11">
      <!-- 1.60 -->
      <g transform="translate(13.977656 32.297726) scale(0.065 -0.065)">
       <use xlink:href="#HelveticaNeue-31"/>
       <use xlink:href="#HelveticaNeue-2e" transform="translate(55.599991 0)"/>
       <use xlink:href="#HelveticaNeue-36" transform="translate(83.399979 0)"/>
       <use xlink:href="#HelveticaNeue-30" transform="translate(138.999969 0)"/>
      </g>
     </g>
    </g>
    <g id="text_12">
     <!-- MSE -->
     <g transform="translate(8.598438 114.734453) rotate(-90) scale(0.07 -0.07)">
      <defs>
       <path id="HelveticaNeue-45" d="M 499 4570 
L 499 0 
L 3674 0 
L 3674 512 
L 1107 512 
L 1107 2093 
L 3482 2093 
L 3482 2605 
L 1107 2605 
L 1107 4058 
L 3654 4058 
L 3654 4570 
L 499 4570 
z
" transform="scale(0.015625)"/>
      </defs>
      <use xlink:href="#HelveticaNeue-4d"/>
      <use xlink:href="#HelveticaNeue-53" transform="translate(87.099991 0)"/>
      <use xlink:href="#HelveticaNeue-45" transform="translate(151.899979 0)"/>
     </g>
    </g>
   </g>
   <g id="patch_3">
    <path d="M 40.861147 185.616 
L 83.565881 185.616 
L 83.565881 143.26125 
L 40.861147 143.26125 
z
" clip-path="url(#p0827648c9e)" style="fill: #c6dcef; stroke: #0072b2; stroke-width: 0.8; stroke-linejoin: miter"/>
   </g>
   <g id="patch_4">
    <path d="M 162.874671 185.616 
L 205.579404 185.616 
L 205.579404 145.813542 
L 162.874671 145.813542 
z
" clip-path="url(#p0827648c9e)" style="fill: #fae3a0; stroke: #e69f00; stroke-width: 0.8; stroke-linejoin: miter"/>
   </g>
   <g id="patch_5">
    <path d="M 32.625234 185.616 
L 32.625234 28.944 
" style="fill: none; stroke: #000000; stroke-width: 0.6; stroke-linejoin: miter; stroke-linecap: square"/>
   </g>
   <g id="patch_6">
    <path d="M 32.625234 185.616 
L 213.815317 185.616 
" style="fill: none; stroke: #000000; stroke-width: 0.4; stroke-linejoin: miter; stroke-linecap: square"/>
   </g>
   <g id="text_13">
    <!-- a -->
    <g transform="translate(3.634821 16.569922) scale(0.09 -0.09)">
     <defs>
      <path id="HelveticaNeue-61" d="M 3341 13 
Q 3200 -70 2950 -70 
Q 2739 -70 2614 48 
Q 2490 166 2490 435 
Q 2266 166 1968 48 
Q 1670 -70 1325 -70 
Q 1101 -70 899 -19 
Q 698 32 550 141 
Q 403 250 316 426 
Q 230 602 230 851 
Q 230 1133 326 1312 
Q 422 1491 579 1603 
Q 736 1715 937 1772 
Q 1139 1830 1350 1869 
Q 1574 1914 1776 1936 
Q 1978 1958 2131 2000 
Q 2285 2042 2374 2122 
Q 2464 2202 2464 2355 
Q 2464 2534 2397 2643 
Q 2330 2752 2224 2809 
Q 2118 2867 1987 2886 
Q 1856 2906 1728 2906 
Q 1382 2906 1152 2774 
Q 922 2643 902 2278 
L 358 2278 
Q 371 2586 486 2797 
Q 602 3008 794 3139 
Q 986 3270 1232 3328 
Q 1478 3386 1760 3386 
Q 1984 3386 2205 3354 
Q 2426 3322 2605 3222 
Q 2784 3123 2893 2944 
Q 3002 2765 3002 2477 
L 3002 774 
Q 3002 582 3024 492 
Q 3046 403 3174 403 
Q 3245 403 3341 435 
L 3341 13 
z
M 2458 1709 
Q 2355 1632 2188 1597 
Q 2022 1562 1840 1539 
Q 1658 1517 1472 1488 
Q 1286 1459 1139 1395 
Q 992 1331 899 1212 
Q 806 1094 806 890 
Q 806 755 860 662 
Q 915 570 1001 512 
Q 1088 454 1203 428 
Q 1318 403 1446 403 
Q 1715 403 1907 476 
Q 2099 550 2220 662 
Q 2342 774 2400 905 
Q 2458 1037 2458 1152 
L 2458 1709 
z
" transform="scale(0.015625)"/>
     </defs>
     <use xlink:href="#HelveticaNeue-61"/>
    </g>
   </g>
   <g id="text_14">
    <!-- std=0.202 -->
    <g style="fill: #0072b2" transform="translate(49.811873 119.607006) scale(0.055 -0.055)">
     <defs>
      <path id="HelveticaNeue-73" d="M 742 1043 
L 198 1043 
Q 211 736 326 521 
Q 442 307 634 176 
Q 826 45 1075 -12 
Q 1325 -70 1600 -70 
Q 1850 -70 2102 -22 
Q 2355 26 2556 147 
Q 2758 269 2883 467 
Q 3008 666 3008 966 
Q 3008 1203 2915 1363 
Q 2822 1523 2672 1628 
Q 2522 1734 2326 1798 
Q 2131 1862 1926 1907 
Q 1734 1952 1542 1993 
Q 1350 2035 1196 2096 
Q 1043 2157 944 2249 
Q 845 2342 845 2483 
Q 845 2611 909 2691 
Q 973 2771 1075 2819 
Q 1178 2867 1302 2886 
Q 1427 2906 1549 2906 
Q 1683 2906 1814 2877 
Q 1946 2848 2054 2784 
Q 2163 2720 2233 2614 
Q 2304 2509 2317 2349 
L 2861 2349 
Q 2842 2650 2733 2851 
Q 2624 3053 2441 3171 
Q 2259 3290 2022 3338 
Q 1786 3386 1504 3386 
Q 1286 3386 1065 3331 
Q 845 3277 669 3165 
Q 493 3053 381 2873 
Q 269 2694 269 2445 
Q 269 2125 429 1945 
Q 589 1766 829 1667 
Q 1069 1568 1350 1513 
Q 1632 1459 1872 1392 
Q 2112 1325 2272 1216 
Q 2432 1107 2432 896 
Q 2432 742 2355 643 
Q 2278 544 2160 493 
Q 2042 442 1901 422 
Q 1760 403 1632 403 
Q 1466 403 1309 435 
Q 1152 467 1027 540 
Q 902 614 825 739 
Q 749 864 742 1043 
z
" transform="scale(0.015625)"/>
      <path id="HelveticaNeue-64" d="M 806 1626 
Q 806 1869 857 2099 
Q 909 2330 1024 2509 
Q 1139 2688 1331 2797 
Q 1523 2906 1798 2906 
Q 2080 2906 2278 2800 
Q 2477 2694 2601 2521 
Q 2726 2349 2784 2121 
Q 2842 1894 2842 1651 
Q 2842 1421 2787 1197 
Q 2733 973 2611 797 
Q 2490 621 2298 512 
Q 2106 403 1830 403 
Q 1568 403 1373 505 
Q 1178 608 1053 781 
Q 928 954 867 1174 
Q 806 1395 806 1626 
z
M 3366 0 
L 3366 4570 
L 2822 4570 
L 2822 2867 
L 2810 2867 
Q 2720 3014 2589 3113 
Q 2458 3213 2310 3273 
Q 2163 3334 2016 3360 
Q 1869 3386 1741 3386 
Q 1363 3386 1078 3248 
Q 794 3110 605 2876 
Q 416 2643 323 2329 
Q 230 2016 230 1664 
Q 230 1312 326 998 
Q 422 685 611 448 
Q 800 211 1085 70 
Q 1370 -70 1754 -70 
Q 2099 -70 2387 51 
Q 2675 173 2810 448 
L 2822 448 
L 2822 0 
L 3366 0 
z
" transform="scale(0.015625)"/>
      <path id="HelveticaNeue-3d" d="M 307 1190 
L 307 755 
L 3533 755 
L 3533 1190 
L 307 1190 
z
M 3533 2048 
L 3533 2483 
L 307 2483 
L 307 2048 
L 3533 2048 
z
" transform="scale(0.015625)"/>
     </defs>
     <use xlink:href="#HelveticaNeue-73"/>
     <use xlink:href="#HelveticaNeue-74" transform="translate(49.999985 0)"/>
     <use xlink:href="#HelveticaNeue-64" transform="translate(81.499969 0)"/>
     <use xlink:href="#HelveticaNeue-3d" transform="translate(140.799957 0)"/>
     <use xlink:href="#HelveticaNeue-30" transform="translate(200.799942 0)"/>
     <use xlink:href="#HelveticaNeue-2e" transform="translate(256.399933 0)"/>
     <use xlink:href="#HelveticaNeue-32" transform="translate(284.199921 0)"/>
     <use xlink:href="#HelveticaNeue-30" transform="translate(339.799911 0)"/>
     <use xlink:href="#HelveticaNeue-32" transform="translate(395.399902 0)"/>
    </g>
   </g>
   <g id="text_15">
    <!-- std=0.157 -->
    <g style="fill: #e69f00" transform="translate(171.825397 126.551221) scale(0.055 -0.055)">
     <defs>
      <path id="HelveticaNeue-35" d="M 3008 3981 
L 3008 4461 
L 768 4461 
L 346 2106 
L 813 2080 
Q 973 2272 1181 2390 
Q 1389 2509 1658 2509 
Q 1888 2509 2077 2432 
Q 2266 2355 2400 2217 
Q 2534 2080 2608 1891 
Q 2682 1702 2682 1478 
Q 2682 1210 2605 1008 
Q 2528 806 2397 672 
Q 2266 538 2090 470 
Q 1914 403 1722 403 
Q 1517 403 1347 464 
Q 1178 525 1053 637 
Q 928 749 854 899 
Q 781 1050 768 1222 
L 224 1222 
Q 230 915 345 672 
Q 461 429 659 265 
Q 858 102 1117 16 
Q 1376 -70 1670 -70 
Q 2067 -70 2364 54 
Q 2662 179 2860 390 
Q 3059 602 3158 874 
Q 3258 1146 3258 1434 
Q 3258 1824 3142 2115 
Q 3027 2406 2828 2601 
Q 2630 2797 2361 2893 
Q 2093 2989 1792 2989 
Q 1562 2989 1328 2909 
Q 1094 2829 947 2662 
L 934 2675 
L 1178 3981 
L 3008 3981 
z
" transform="scale(0.015625)"/>
      <path id="HelveticaNeue-37" d="M 3258 3994 
L 3258 4461 
L 320 4461 
L 320 3949 
L 2701 3949 
Q 2342 3571 2032 3123 
Q 1722 2675 1485 2172 
Q 1248 1670 1097 1123 
Q 947 576 909 0 
L 1517 0 
Q 1549 531 1696 1094 
Q 1843 1658 2076 2189 
Q 2310 2720 2611 3187 
Q 2912 3654 3258 3994 
z
" transform="scale(0.015625)"/>
     </defs>
     <use xlink:href="#HelveticaNeue-73"/>
     <use xlink:href="#HelveticaNeue-74" transform="translate(49.999985 0)"/>
     <use xlink:href="#HelveticaNeue-64" transform="translate(81.499969 0)"/>
     <use xlink:href="#HelveticaNeue-3d" transform="translate(140.799957 0)"/>
     <use xlink:href="#HelveticaNeue-30" transform="translate(200.799942 0)"/>
     <use xlink:href="#HelveticaNeue-2e" transform="translate(256.399933 0)"/>
     <use xlink:href="#HelveticaNeue-31" transform="translate(284.199921 0)"/>
     <use xlink:href="#HelveticaNeue-35" transform="translate(339.799911 0)"/>
     <use xlink:href="#HelveticaNeue-37" transform="translate(395.399902 0)"/>
    </g>
   </g>
   <g id="patch_7">
    <path d="M 64.995688 109.017755 
Q 123.218347 109.017755 181.441007 109.017755 
" style="fill: none; stroke: #555555; stroke-width: 0.7; stroke-linecap: round"/>
    <path d="M 67.395688 110.217755 
L 64.995688 109.017755 
L 67.395688 107.817755 
" style="fill: none; stroke: #555555; stroke-width: 0.7; stroke-linecap: round"/>
    <path d="M 179.041007 107.817755 
L 181.441007 109.017755 
L 179.041007 110.217755 
" style="fill: none; stroke: #555555; stroke-width: 0.7; stroke-linecap: round"/>
   </g>
   <g id="text_16">
    <!-- Δ = +0.026  (Mix lower) -->
    <g style="fill: #333333" transform="translate(94.915471 106.76679) scale(0.055 -0.055)">
     <defs>
      <path id="HelveticaNeue-394" d="M -26 0 
L 1741 4570 
L 2413 4570 
L 4179 0 
L -26 0 
z
M 794 512 
L 3315 512 
L 2080 4026 
L 2067 4026 
L 794 512 
z
" transform="scale(0.015625)"/>
      <path id="HelveticaNeue-20" transform="scale(0.015625)"/>
      <path id="HelveticaNeue-2b" d="M 2138 1837 
L 2138 3238 
L 1702 3238 
L 1702 1837 
L 307 1837 
L 307 1402 
L 1702 1402 
L 1702 0 
L 2138 0 
L 2138 1402 
L 3533 1402 
L 3533 1837 
L 2138 1837 
z
" transform="scale(0.015625)"/>
      <path id="HelveticaNeue-28" d="M 1306 -1261 
L 1722 -1261 
Q 1267 -525 1072 198 
Q 877 922 877 1728 
Q 877 2515 1069 3232 
Q 1261 3949 1722 4678 
L 1306 4678 
Q 806 4019 553 3251 
Q 301 2483 301 1728 
Q 301 1306 371 922 
Q 442 538 573 173 
Q 704 -192 889 -547 
Q 1075 -902 1306 -1261 
z
" transform="scale(0.015625)"/>
      <path id="HelveticaNeue-6c" d="M 442 4570 
L 442 0 
L 986 0 
L 986 4570 
L 442 4570 
z
" transform="scale(0.015625)"/>
      <path id="HelveticaNeue-77" d="M 3686 0 
L 4742 3309 
L 4179 3309 
L 3437 602 
L 3424 602 
L 2733 3309 
L 2138 3309 
L 1472 602 
L 1459 602 
L 710 3309 
L 109 3309 
L 1171 0 
L 1760 0 
L 2426 2630 
L 2438 2630 
L 3110 0 
L 3686 0 
z
" transform="scale(0.015625)"/>
      <path id="HelveticaNeue-65" d="M 2707 1971 
L 806 1971 
Q 819 2163 889 2332 
Q 960 2502 1081 2630 
Q 1203 2758 1372 2832 
Q 1542 2906 1754 2906 
Q 1958 2906 2128 2832 
Q 2298 2758 2422 2633 
Q 2547 2509 2620 2336 
Q 2694 2163 2707 1971 
z
M 3232 1050 
L 2694 1050 
Q 2624 723 2403 563 
Q 2182 403 1837 403 
Q 1568 403 1369 492 
Q 1171 582 1043 732 
Q 915 883 857 1078 
Q 800 1274 806 1491 
L 3283 1491 
Q 3296 1792 3229 2125 
Q 3162 2458 2986 2739 
Q 2810 3021 2518 3203 
Q 2227 3386 1786 3386 
Q 1446 3386 1161 3258 
Q 877 3130 669 2899 
Q 461 2669 345 2355 
Q 230 2042 230 1664 
Q 243 1286 342 966 
Q 442 646 640 416 
Q 838 186 1129 58 
Q 1421 -70 1818 -70 
Q 2381 -70 2752 211 
Q 3123 493 3232 1050 
z
" transform="scale(0.015625)"/>
      <path id="HelveticaNeue-72" d="M 390 3309 
L 390 0 
L 934 0 
L 934 1472 
Q 934 1792 998 2038 
Q 1062 2285 1203 2457 
Q 1344 2630 1574 2720 
Q 1805 2810 2131 2810 
L 2131 3386 
Q 1690 3398 1402 3206 
Q 1114 3014 915 2611 
L 902 2611 
L 902 3309 
L 390 3309 
z
" transform="scale(0.015625)"/>
      <path id="HelveticaNeue-29" d="M -58 -1261 
L 352 -1261 
Q 851 -602 1104 163 
Q 1357 928 1357 1683 
Q 1357 2106 1286 2490 
Q 1216 2874 1085 3242 
Q 954 3610 768 3965 
Q 582 4320 352 4678 
L -58 4678 
Q 390 3942 585 3216 
Q 781 2490 781 1683 
Q 781 902 589 182 
Q 397 -538 -58 -1261 
z
" transform="scale(0.015625)"/>
     </defs>
     <use xlink:href="#HelveticaNeue-394"/>
     <use xlink:href="#HelveticaNeue-20" transform="translate(64.799988 0)"/>
     <use xlink:href="#HelveticaNeue-3d" transform="translate(92.599976 0)"/>
     <use xlink:href="#HelveticaNeue-20" transform="translate(152.59996 0)"/>
     <use xlink:href="#HelveticaNeue-2b" transform="translate(180.399948 0)"/>
     <use xlink:href="#HelveticaNeue-30" transform="translate(240.399933 0)"/>
     <use xlink:href="#HelveticaNeue-2e" transform="translate(295.999924 0)"/>
     <use xlink:href="#HelveticaNeue-30" transform="translate(323.799911 0)"/>
     <use xlink:href="#HelveticaNeue-32" transform="translate(379.399902 0)"/>
     <use xlink:href="#HelveticaNeue-36" transform="translate(434.999893 0)"/>
     <use xlink:href="#HelveticaNeue-20" transform="translate(490.599884 0)"/>
     <use xlink:href="#HelveticaNeue-20" transform="translate(518.399872 0)"/>
     <use xlink:href="#HelveticaNeue-28" transform="translate(546.19986 0)"/>
     <use xlink:href="#HelveticaNeue-4d" transform="translate(572.099854 0)"/>
     <use xlink:href="#HelveticaNeue-69" transform="translate(659.199844 0)"/>
     <use xlink:href="#HelveticaNeue-78" transform="translate(681.399841 0)"/>
     <use xlink:href="#HelveticaNeue-20" transform="translate(733.199829 0)"/>
     <use xlink:href="#HelveticaNeue-6c" transform="translate(760.999817 0)"/>
     <use xlink:href="#HelveticaNeue-6f" transform="translate(783.199814 0)"/>
     <use xlink:href="#HelveticaNeue-77" transform="translate(840.599808 0)"/>
     <use xlink:href="#HelveticaNeue-65" transform="translate(916.399796 0)"/>
     <use xlink:href="#HelveticaNeue-72" transform="translate(970.099792 0)"/>
     <use xlink:href="#HelveticaNeue-29" transform="translate(1003.39978 0)"/>
    </g>
   </g>
   <g id="text_17">
    <!-- acc  15/16 -->
    <g style="fill: #0072b2" transform="translate(49.223201 214.610864) scale(0.055 -0.055)">
     <defs>
      <path id="HelveticaNeue-63" d="M 2656 2246 
L 3219 2246 
Q 3187 2541 3065 2755 
Q 2944 2970 2755 3110 
Q 2566 3251 2320 3318 
Q 2074 3386 1792 3386 
Q 1402 3386 1107 3248 
Q 813 3110 617 2870 
Q 422 2630 326 2307 
Q 230 1984 230 1613 
Q 230 1242 329 931 
Q 429 621 624 397 
Q 819 173 1110 51 
Q 1402 -70 1779 -70 
Q 2413 -70 2781 262 
Q 3149 595 3238 1210 
L 2682 1210 
Q 2630 826 2403 614 
Q 2176 403 1773 403 
Q 1517 403 1331 505 
Q 1146 608 1030 777 
Q 915 947 860 1164 
Q 806 1382 806 1613 
Q 806 1862 857 2096 
Q 909 2330 1027 2509 
Q 1146 2688 1344 2797 
Q 1542 2906 1837 2906 
Q 2182 2906 2387 2733 
Q 2592 2560 2656 2246 
z
" transform="scale(0.015625)"/>
      <path id="HelveticaNeue-2f" d="M 1779 4678 
L -109 -102 
L 352 -102 
L 2246 4678 
L 1779 4678 
z
" transform="scale(0.015625)"/>
     </defs>
     <use xlink:href="#HelveticaNeue-61"/>
     <use xlink:href="#HelveticaNeue-63" transform="translate(53.699997 0)"/>
     <use xlink:href="#HelveticaNeue-63" transform="translate(107.399994 0)"/>
     <use xlink:href="#HelveticaNeue-20" transform="translate(161.099991 0)"/>
     <use xlink:href="#HelveticaNeue-20" transform="translate(188.899979 0)"/>
     <use xlink:href="#HelveticaNeue-31" transform="translate(216.699966 0)"/>
     <use xlink:href="#HelveticaNeue-35" transform="translate(272.299957 0)"/>
     <use xlink:href="#HelveticaNeue-2f" transform="translate(327.899948 0)"/>
     <use xlink:href="#HelveticaNeue-31" transform="translate(361.199936 0)"/>
     <use xlink:href="#HelveticaNeue-36" transform="translate(416.799927 0)"/>
    </g>
   </g>
   <g id="text_18">
    <!-- acc  15/16 -->
    <g style="fill: #e69f00" transform="translate(171.236725 214.610864) scale(0.055 -0.055)">
     <use xlink:href="#HelveticaNeue-61"/>
     <use xlink:href="#HelveticaNeue-63" transform="translate(53.699997 0)"/>
     <use xlink:href="#HelveticaNeue-63" transform="translate(107.399994 0)"/>
     <use xlink:href="#HelveticaNeue-20" transform="translate(161.099991 0)"/>
     <use xlink:href="#HelveticaNeue-20" transform="translate(188.899979 0)"/>
     <use xlink:href="#HelveticaNeue-31" transform="translate(216.699966 0)"/>
     <use xlink:href="#HelveticaNeue-35" transform="translate(272.299957 0)"/>
     <use xlink:href="#HelveticaNeue-2f" transform="translate(327.899948 0)"/>
     <use xlink:href="#HelveticaNeue-31" transform="translate(361.199936 0)"/>
     <use xlink:href="#HelveticaNeue-36" transform="translate(416.799927 0)"/>
    </g>
   </g>
   <g id="text_19">
    <!-- Per-trial MSE $\|\bar{\mathbf{y}} - \mathbf{y}^*\|^2$ -->
    <g transform="translate(82.345276 24.944) scale(0.075 -0.075)">
     <defs>
      <path id="HelveticaNeue-50" d="M 1107 2381 
L 1107 4058 
L 2298 4058 
Q 2816 4058 3056 3843 
Q 3296 3629 3296 3219 
Q 3296 2810 3056 2592 
Q 2816 2374 2298 2381 
L 1107 2381 
z
M 499 4570 
L 499 0 
L 1107 0 
L 1107 1869 
L 2502 1869 
Q 3194 1862 3549 2220 
Q 3904 2579 3904 3219 
Q 3904 3859 3549 4214 
Q 3194 4570 2502 4570 
L 499 4570 
z
" transform="scale(0.015625)"/>
      <path id="HelveticaNeue-2d" d="M 320 2035 
L 320 1523 
L 2170 1523 
L 2170 2035 
L 320 2035 
z
" transform="scale(0.015625)"/>
      <path id="DejaVuSans-2016" d="M 1344 4891 
L 1344 -1509 
L 813 -1509 
L 813 4891 
L 1344 4891 
z
M 2376 4891 
L 2376 -1509 
L 1845 -1509 
L 1845 4891 
L 2376 4891 
z
" transform="scale(0.015625)"/>
      <path id="DejaVuSans-304" d="M -2518 4769 
L -650 4769 
L -650 4306 
L -2518 4306 
L -2518 4769 
z
" transform="scale(0.015625)"/>
      <path id="DejaVuSans-Bold-79" d="M 78 3500 
L 1197 3500 
L 2138 1125 
L 2938 3500 
L 4056 3500 
L 2584 -331 
Q 2363 -916 2067 -1148 
Q 1772 -1381 1288 -1381 
L 641 -1381 
L 641 -647 
L 991 -647 
Q 1275 -647 1404 -556 
Q 1534 -466 1606 -231 
L 1638 -134 
L 78 3500 
z
" transform="scale(0.015625)"/>
      <path id="DejaVuSans-2212" d="M 678 2272 
L 4684 2272 
L 4684 1741 
L 678 1741 
L 678 2272 
z
" transform="scale(0.015625)"/>
      <path id="DejaVuSans-2a" d="M 3009 3897 
L 1888 3291 
L 3009 2681 
L 2828 2375 
L 1778 3009 
L 1778 1831 
L 1422 1831 
L 1422 3009 
L 372 2375 
L 191 2681 
L 1313 3291 
L 191 3897 
L 372 4206 
L 1422 3572 
L 1422 4750 
L 1778 4750 
L 1778 3572 
L 2828 4206 
L 3009 3897 
z
" transform="scale(0.015625)"/>
      <path id="DejaVuSans-32" d="M 1228 531 
L 3431 531 
L 3431 0 
L 469 0 
L 469 531 
Q 828 903 1448 1529 
Q 2069 2156 2228 2338 
Q 2531 2678 2651 2914 
Q 2772 3150 2772 3378 
Q 2772 3750 2511 3984 
Q 2250 4219 1831 4219 
Q 1534 4219 1204 4116 
Q 875 4013 500 3803 
L 500 4441 
Q 881 4594 1212 4672 
Q 1544 4750 1819 4750 
Q 2544 4750 2975 4387 
Q 3406 4025 3406 3419 
Q 3406 3131 3298 2873 
Q 3191 2616 2906 2266 
Q 2828 2175 2409 1742 
Q 1991 1309 1228 531 
z
" transform="scale(0.015625)"/>
     </defs>
     <use xlink:href="#HelveticaNeue-50" transform="translate(0 0.765625)"/>
     <use xlink:href="#HelveticaNeue-65" transform="translate(64.799988 0.765625)"/>
     <use xlink:href="#HelveticaNeue-72" transform="translate(118.499985 0.765625)"/>
     <use xlink:href="#HelveticaNeue-2d" transform="translate(151.799973 0.765625)"/>
     <use xlink:href="#HelveticaNeue-74" transform="translate(190.699966 0.765625)"/>
     <use xlink:href="#HelveticaNeue-72" transform="translate(222.199951 0.765625)"/>
     <use xlink:href="#HelveticaNeue-69" transform="translate(255.499939 0.765625)"/>
     <use xlink:href="#HelveticaNeue-61" transform="translate(277.699936 0.765625)"/>
     <use xlink:href="#HelveticaNeue-6c" transform="translate(331.399933 0.765625)"/>
     <use xlink:href="#HelveticaNeue-20" transform="translate(353.59993 0.765625)"/>
     <use xlink:href="#HelveticaNeue-4d" transform="translate(381.399918 0.765625)"/>
     <use xlink:href="#HelveticaNeue-53" transform="translate(468.499908 0.765625)"/>
     <use xlink:href="#HelveticaNeue-45" transform="translate(533.299896 0.765625)"/>
     <use xlink:href="#HelveticaNeue-20" transform="translate(594.399887 0.765625)"/>
     <use xlink:href="#DejaVuSans-2016" transform="translate(622.199875 0.765625)"/>
     <use xlink:href="#DejaVuSans-304" transform="translate(737.840012 0.671875)"/>
     <use xlink:href="#DejaVuSans-Bold-79" transform="translate(672.199875 0.765625)"/>
     <use xlink:href="#DejaVuSans-2212" transform="translate(756.867844 0.765625)"/>
     <use xlink:href="#DejaVuSans-Bold-79" transform="translate(860.139328 0.765625)"/>
     <use xlink:href="#DejaVuSans-2a" transform="translate(939.919601 39.046875) scale(0.7)"/>
     <use xlink:href="#DejaVuSans-2016" transform="translate(991.291672 0.765625)"/>
     <use xlink:href="#DejaVuSans-32" transform="translate(1042.248703 39.046875) scale(0.7)"/>
    </g>
   </g>
   <g id="LineCollection_1">
    <path d="M 62.213514 162.91359 
L 62.213514 123.608909 
" clip-path="url(#p0827648c9e)" style="fill: none; stroke: #0072b2"/>
   </g>
   <g id="line2d_12">
    <defs>
     <path id="m88003f9e48" d="M 2.5 0 
L -2.5 -0 
" style="stroke: #0072b2; stroke-width: 0.8"/>
    </defs>
    <g clip-path="url(#p0827648c9e)">
     <use xlink:href="#m88003f9e48" x="62.213514" y="162.91359" style="fill: #1f77b4; stroke: #0072b2; stroke-width: 0.8"/>
    </g>
   </g>
   <g id="line2d_13">
    <g clip-path="url(#p0827648c9e)">
     <use xlink:href="#m88003f9e48" x="62.213514" y="123.608909" style="fill: #1f77b4; stroke: #0072b2; stroke-width: 0.8"/>
    </g>
   </g>
   <g id="LineCollection_2">
    <path d="M 184.227038 161.07396 
L 184.227038 130.553123 
" clip-path="url(#p0827648c9e)" style="fill: none; stroke: #e69f00"/>
   </g>
   <g id="line2d_14">
    <defs>
     <path id="ma7dc0e74eb" d="M 2.5 0 
L -2.5 -0 
" style="stroke: #e69f00; stroke-width: 0.8"/>
    </defs>
    <g clip-path="url(#p0827648c9e)">
     <use xlink:href="#ma7dc0e74eb" x="184.227038" y="161.07396" style="fill: #1f77b4; stroke: #e69f00; stroke-width: 0.8"/>
    </g>
   </g>
   <g id="line2d_15">
    <g clip-path="url(#p0827648c9e)">
     <use xlink:href="#ma7dc0e74eb" x="184.227038" y="130.553123" style="fill: #1f77b4; stroke: #e69f00; stroke-width: 0.8"/>
    </g>
   </g>
   <g id="PathCollection_1">
    <defs>
     <path id="mbca6a74e41" d="M 0 1.414214 
C 0.375054 1.414214 0.734797 1.265203 1 1 
C 1.265203 0.734797 1.414214 0.375054 1.414214 0 
C 1.414214 -0.375054 1.265203 -0.734797 1 -1 
C 0.734797 -1.265203 0.375054 -1.414214 0 -1.414214 
C -0.375054 -1.414214 -0.734797 -1.265203 -1 -1 
C -1.265203 -0.734797 -1.414214 -0.375054 -1.414214 0 
C -1.414214 0.375054 -1.265203 0.734797 -1 1 
C -0.734797 1.265203 -0.375054 1.414214 0 1.414214 
z
"/>
    </defs>
    <g clip-path="url(#p0827648c9e)">
     <use xlink:href="#mbca6a74e41" x="64.553079" y="133.739492" style="fill: #0072b2; fill-opacity: 0.7"/>
     <use xlink:href="#mbca6a74e41" x="58.281035" y="159.254867" style="fill: #0072b2; fill-opacity: 0.7"/>
     <use xlink:href="#mbca6a74e41" x="54.372473" y="137.825226" style="fill: #0072b2; fill-opacity: 0.7"/>
     <use xlink:href="#mbca6a74e41" x="53.954891" y="142.508896" style="fill: #0072b2; fill-opacity: 0.7"/>
     <use xlink:href="#mbca6a74e41" x="67.564763" y="172.715864" style="fill: #0072b2; fill-opacity: 0.7"/>
     <use xlink:href="#mbca6a74e41" x="69.264161" y="126.80945" style="fill: #0072b2; fill-opacity: 0.7"/>
     <use xlink:href="#mbca6a74e41" x="64.035055" y="159.202365" style="fill: #0072b2; fill-opacity: 0.7"/>
     <use xlink:href="#mbca6a74e41" x="66.13375" y="139.212493" style="fill: #0072b2; fill-opacity: 0.7"/>
     <use xlink:href="#mbca6a74e41" x="62.958711" y="129.007769" style="fill: #0072b2; fill-opacity: 0.7"/>
     <use xlink:href="#mbca6a74e41" x="69.645375" y="153.877719" style="fill: #0072b2; fill-opacity: 0.7"/>
     <use xlink:href="#mbca6a74e41" x="67.608891" y="124.339678" style="fill: #0072b2; fill-opacity: 0.7"/>
     <use xlink:href="#mbca6a74e41" x="53.719346" y="143.999715" style="fill: #0072b2; fill-opacity: 0.7"/>
     <use xlink:href="#mbca6a74e41" x="68.318656" y="163.864873" style="fill: #0072b2; fill-opacity: 0.7"/>
     <use xlink:href="#mbca6a74e41" x="54.246272" y="165.279956" style="fill: #0072b2; fill-opacity: 0.7"/>
     <use xlink:href="#mbca6a74e41" x="66.136464" y="90.663273" style="fill: #0072b2; fill-opacity: 0.7"/>
     <use xlink:href="#mbca6a74e41" x="56.673098" y="149.878357" style="fill: #0072b2; fill-opacity: 0.7"/>
    </g>
   </g>
   <g id="PathCollection_2">
    <defs>
     <path id="m0eb6beb755" d="M 0 1.414214 
C 0.375054 1.414214 0.734797 1.265203 1 1 
C 1.265203 0.734797 1.414214 0.375054 1.414214 0 
C 1.414214 -0.375054 1.265203 -0.734797 1 -1 
C 0.734797 -1.265203 0.375054 -1.414214 0 -1.414214 
C -0.375054 -1.414214 -0.734797 -1.265203 -1 -1 
C -1.265203 -0.734797 -1.414214 -0.375054 -1.414214 0 
C -1.414214 0.375054 -1.265203 0.734797 -1 1 
C -0.734797 1.265203 -0.375054 1.414214 0 1.414214 
z
"/>
    </defs>
    <g clip-path="url(#p0827648c9e)">
     <use xlink:href="#m0eb6beb755" x="184.428973" y="124.735179" style="fill: #e69f00; fill-opacity: 0.7"/>
     <use xlink:href="#m0eb6beb755" x="191.92181" y="142.981901" style="fill: #e69f00; fill-opacity: 0.7"/>
     <use xlink:href="#m0eb6beb755" x="178.14861" y="142.242921" style="fill: #e69f00; fill-opacity: 0.7"/>
     <use xlink:href="#m0eb6beb755" x="191.89082" y="157.503769" style="fill: #e69f00; fill-opacity: 0.7"/>
     <use xlink:href="#m0eb6beb755" x="181.012762" y="150.686067" style="fill: #e69f00; fill-opacity: 0.7"/>
     <use xlink:href="#m0eb6beb755" x="182.917308" y="176.596605" style="fill: #e69f00; fill-opacity: 0.7"/>
     <use xlink:href="#m0eb6beb755" x="189.824818" y="140.745614" style="fill: #e69f00; fill-opacity: 0.7"/>
     <use xlink:href="#m0eb6beb755" x="182.675987" y="143.669821" style="fill: #e69f00; fill-opacity: 0.7"/>
     <use xlink:href="#m0eb6beb755" x="185.074192" y="116.512659" style="fill: #e69f00; fill-opacity: 0.7"/>
     <use xlink:href="#m0eb6beb755" x="176.156853" y="126.291041" style="fill: #e69f00; fill-opacity: 0.7"/>
     <use xlink:href="#m0eb6beb755" x="188.557521" y="161.261637" style="fill: #e69f00; fill-opacity: 0.7"/>
     <use xlink:href="#m0eb6beb755" x="184.878598" y="143.934612" style="fill: #e69f00; fill-opacity: 0.7"/>
     <use xlink:href="#m0eb6beb755" x="181.318533" y="164.533881" style="fill: #e69f00; fill-opacity: 0.7"/>
     <use xlink:href="#m0eb6beb755" x="189.153946" y="136.290756" style="fill: #e69f00; fill-opacity: 0.7"/>
     <use xlink:href="#m0eb6beb755" x="180.865233" y="159.929324" style="fill: #e69f00; fill-opacity: 0.7"/>
     <use xlink:href="#m0eb6beb755" x="183.432693" y="145.100877" style="fill: #e69f00; fill-opacity: 0.7"/>
    </g>
   </g>
  </g>
  <g id="axes_2">
   <g id="patch_8">
    <path d="M 289.915152 185.616 
L 471.105234 185.616 
L 471.105234 28.944 
L 289.915152 28.944 
z
" style="fill: #ffffff"/>
   </g>
   <g id="FillBetweenPolyCollection_1">
    <path d="M 338.698568 185.441207 
L 312.509647 185.441207 
L 309.571926 182.36473 
L 306.811888 179.288253 
L 304.39093 176.211775 
L 302.39705 173.135298 
L 300.84437 170.058821 
L 299.696038 166.982344 
L 298.896148 163.905866 
L 298.394555 160.829389 
L 298.155447 157.752912 
L 298.151065 154.676435 
L 298.349549 151.599957 
L 298.706863 148.52348 
L 299.167919 145.447003 
L 299.675638 142.370525 
L 300.182545 139.294048 
L 300.659304 136.217571 
L 301.097113 133.141094 
L 301.504173 130.064616 
L 301.89899 126.988139 
L 302.30425 123.911662 
L 302.744029 120.835185 
L 303.24447 117.758707 
L 303.834944 114.68223 
L 304.545459 111.605753 
L 305.398087 108.529275 
L 306.394784 105.452798 
L 307.50805 102.376321 
L 308.681259 99.299844 
L 309.841253 96.223366 
L 310.919291 93.146889 
L 311.871679 90.070412 
L 312.691267 86.993935 
L 313.405385 83.917457 
L 314.061985 80.84098 
L 314.710443 77.764503 
L 315.384594 74.688025 
L 316.093475 71.611548 
L 316.82151 68.535071 
L 317.536453 65.458594 
L 318.201348 62.382116 
L 318.786333 59.305639 
L 319.276882 56.229162 
L 319.676525 53.152685 
L 320.003921 50.076207 
L 320.285899 46.99973 
L 320.549285 43.923253 
L 320.814422 40.846776 
L 321.092152 37.770298 
L 321.384275 34.693821 
L 321.686134 31.617344 
L 321.989751 28.540866 
L 322.286576 25.464389 
L 322.569629 22.387912 
L 322.834979 19.311435 
L 323.082268 16.234957 
L 323.313872 13.15848 
L 323.532849 10.082003 
L 323.740496 7.005526 
L 323.93473 3.929048 
L 324.110089 0.852571 
L 324.259345 -2.223906 
L 324.375972 -5.300384 
L 324.456526 -8.376861 
L 324.502173 -11.453338 
L 324.519018 -14.529815 
L 324.517201 -17.606293 
L 324.509081 -20.68277 
L 324.506927 -23.759247 
L 324.520689 -26.835724 
L 324.556259 -29.912202 
L 324.614575 -32.988679 
L 324.691716 -36.065156 
L 324.780036 -39.141634 
L 324.870124 -42.218111 
L 324.953131 -45.294588 
L 325.022818 -48.371065 
L 325.076723 -51.447543 
L 325.116158 -54.52402 
L 325.145165 -57.600497 
L 325.168883 -60.676974 
L 325.191897 -63.753452 
L 325.217083 -66.829929 
L 325.245264 -69.906406 
L 325.275636 -72.982884 
L 325.306624 -76.059361 
L 325.336709 -79.135838 
L 325.364864 -82.212315 
L 325.390562 -85.288793 
L 325.413568 -88.36527 
L 325.433765 -91.441747 
L 325.451111 -94.518224 
L 325.465648 -97.594702 
L 325.477491 -100.671179 
L 325.486814 -103.747656 
L 325.493899 -106.824133 
L 325.499302 -109.900611 
L 325.503973 -112.977088 
L 325.509177 -116.053565 
L 325.516151 -119.130043 
L 325.692064 -119.130043 
L 325.692064 -119.130043 
L 325.699038 -116.053565 
L 325.704242 -112.977088 
L 325.708913 -109.900611 
L 325.714316 -106.824133 
L 325.721401 -103.747656 
L 325.730723 -100.671179 
L 325.742567 -97.594702 
L 325.757104 -94.518224 
L 325.774449 -91.441747 
L 325.794647 -88.36527 
L 325.817653 -85.288793 
L 325.843351 -82.212315 
L 325.871506 -79.135838 
L 325.901591 -76.059361 
L 325.932579 -72.982884 
L 325.96295 -69.906406 
L 325.991132 -66.829929 
L 326.016318 -63.753452 
L 326.039331 -60.676974 
L 326.06305 -57.600497 
L 326.092057 -54.52402 
L 326.131491 -51.447543 
L 326.185396 -48.371065 
L 326.255084 -45.294588 
L 326.338091 -42.218111 
L 326.428178 -39.141634 
L 326.516499 -36.065156 
L 326.59364 -32.988679 
L 326.651956 -29.912202 
L 326.687526 -26.835724 
L 326.701288 -23.759247 
L 326.699134 -20.68277 
L 326.691013 -17.606293 
L 326.689197 -14.529815 
L 326.706041 -11.453338 
L 326.751689 -8.376861 
L 326.832243 -5.300384 
L 326.94887 -2.223906 
L 327.098126 0.852571 
L 327.273485 3.929048 
L 327.467718 7.005526 
L 327.675366 10.082003 
L 327.894343 13.15848 
L 328.125947 16.234957 
L 328.373235 19.311435 
L 328.638586 22.387912 
L 328.921639 25.464389 
L 329.218464 28.540866 
L 329.522081 31.617344 
L 329.82394 34.693821 
L 330.116063 37.770298 
L 330.393793 40.846776 
L 330.658929 43.923253 
L 330.922315 46.99973 
L 331.204294 50.076207 
L 331.53169 53.152685 
L 331.931333 56.229162 
L 332.421882 59.305639 
L 333.006867 62.382116 
L 333.671762 65.458594 
L 334.386705 68.535071 
L 335.11474 71.611548 
L 335.823621 74.688025 
L 336.497772 77.764503 
L 337.14623 80.84098 
L 337.80283 83.917457 
L 338.516948 86.993935 
L 339.336536 90.070412 
L 340.288923 93.146889 
L 341.366961 96.223366 
L 342.526956 99.299844 
L 343.700165 102.376321 
L 344.81343 105.452798 
L 345.810128 108.529275 
L 346.662756 111.605753 
L 347.373271 114.68223 
L 347.963745 117.758707 
L 348.464186 120.835185 
L 348.903965 123.911662 
L 349.309225 126.988139 
L 349.704042 130.064616 
L 350.111102 133.141094 
L 350.548911 136.217571 
L 351.02567 139.294048 
L 351.532576 142.370525 
L 352.040295 145.447003 
L 352.501352 148.52348 
L 352.858666 151.599957 
L 353.05715 154.676435 
L 353.052768 157.752912 
L 352.81366 160.829389 
L 352.312067 163.905866 
L 351.512177 166.982344 
L 350.363845 170.058821 
L 348.811165 173.135298 
L 346.817285 176.211775 
L 344.396326 179.288253 
L 341.636289 182.36473 
L 338.698568 185.441207 
z
" clip-path="url(#p81ce9bac24)" style="fill: #c6dcef; fill-opacity: 0.7; stroke: #0072b2; stroke-opacity: 0.7"/>
   </g>
   <g id="FillBetweenPolyCollection_2">
    <path d="M 449.083199 185.602264 
L 421.749358 185.602264 
L 413.520485 175.031609 
L 409.151169 164.460954 
L 407.973522 153.890298 
L 407.963236 143.319643 
L 408.800962 132.748988 
L 410.800477 122.178333 
L 413.391836 111.607678 
L 416.013651 101.037023 
L 419.091323 90.466368 
L 422.621552 79.895712 
L 425.760245 69.325057 
L 428.20694 58.754402 
L 430.28171 48.183747 
L 431.939586 37.613092 
L 432.911032 27.042437 
L 433.399487 16.471782 
L 433.752684 5.901126 
L 433.991246 -4.669529 
L 434.279254 -15.240184 
L 434.712204 -25.810839 
L 435.025579 -36.381494 
L 435.156795 -46.952149 
L 435.229129 -57.522804 
L 435.27325 -68.09346 
L 435.306632 -78.664115 
L 435.353208 -89.23477 
L 435.391108 -99.805425 
L 435.393216 -110.37608 
L 435.366187 -120.946735 
L 435.351425 -131.517391 
L 435.373955 -142.088046 
L 435.402451 -152.658701 
L 435.414018 -163.229356 
L 435.416094 -173.800011 
L 435.416271 -184.370666 
L 435.416279 -194.941321 
L 435.416279 -205.511977 
L 435.416278 -216.082632 
L 435.416255 -226.653287 
L 435.415822 -237.223942 
L 435.411837 -247.794597 
L 435.394614 -258.365252 
L 435.362683 -268.935907 
L 435.34437 -279.506563 
L 435.346461 -290.077218 
L 435.342797 -300.647873 
L 435.345583 -311.218528 
L 435.352323 -321.789183 
L 435.346661 -332.359838 
L 435.359081 -342.930493 
L 435.390798 -353.501149 
L 435.410531 -364.071804 
L 435.415629 -374.642459 
L 435.416242 -385.213114 
L 435.416278 -395.783769 
L 435.416279 -406.354424 
L 435.416279 -416.925079 
L 435.416279 -427.495735 
L 435.416279 -438.06639 
L 435.416279 -448.637045 
L 435.416279 -459.2077 
L 435.416279 -469.778355 
L 435.416279 -480.34901 
L 435.416279 -490.919665 
L 435.416279 -501.490321 
L 435.416279 -512.060976 
L 435.416279 -522.631631 
L 435.416279 -533.202286 
L 435.416279 -543.772941 
L 435.416279 -554.343596 
L 435.416279 -564.914251 
L 435.416279 -575.484907 
L 435.416279 -586.055562 
L 435.416279 -596.626217 
L 435.416279 -607.196872 
L 435.416279 -617.767527 
L 435.416279 -628.338182 
L 435.416279 -638.908837 
L 435.416279 -649.479493 
L 435.416279 -660.050148 
L 435.416279 -670.620803 
L 435.416279 -681.191458 
L 435.416279 -691.762113 
L 435.416279 -702.332768 
L 435.416279 -712.903423 
L 435.416279 -723.474079 
L 435.416279 -734.044734 
L 435.416279 -744.615389 
L 435.416279 -755.186044 
L 435.416279 -765.756699 
L 435.416279 -776.327354 
L 435.416279 -786.89801 
L 435.416278 -797.468665 
L 435.416267 -808.03932 
L 435.416022 -818.609975 
L 435.413387 -829.18063 
L 435.399962 -839.751285 
L 435.370196 -850.32194 
L 435.35114 -860.892596 
L 435.481417 -860.892596 
L 435.481417 -860.892596 
L 435.462362 -850.32194 
L 435.432596 -839.751285 
L 435.41917 -829.18063 
L 435.416535 -818.609975 
L 435.41629 -808.03932 
L 435.416279 -797.468665 
L 435.416279 -786.89801 
L 435.416279 -776.327354 
L 435.416279 -765.756699 
L 435.416279 -755.186044 
L 435.416279 -744.615389 
L 435.416279 -734.044734 
L 435.416279 -723.474079 
L 435.416279 -712.903423 
L 435.416279 -702.332768 
L 435.416279 -691.762113 
L 435.416279 -681.191458 
L 435.416279 -670.620803 
L 435.416279 -660.050148 
L 435.416279 -649.479493 
L 435.416279 -638.908837 
L 435.416279 -628.338182 
L 435.416279 -617.767527 
L 435.416279 -607.196872 
L 435.416279 -596.626217 
L 435.416279 -586.055562 
L 435.416279 -575.484907 
L 435.416279 -564.914251 
L 435.416279 -554.343596 
L 435.416279 -543.772941 
L 435.416279 -533.202286 
L 435.416279 -522.631631 
L 435.416279 -512.060976 
L 435.416279 -501.490321 
L 435.416279 -490.919665 
L 435.416279 -480.34901 
L 435.416279 -469.778355 
L 435.416279 -459.2077 
L 435.416279 -448.637045 
L 435.416279 -438.06639 
L 435.416279 -427.495735 
L 435.416279 -416.925079 
L 435.416279 -406.354424 
L 435.41628 -395.783769 
L 435.416315 -385.213114 
L 435.416929 -374.642459 
L 435.422026 -364.071804 
L 435.441759 -353.501149 
L 435.473477 -342.930493 
L 435.485897 -332.359838 
L 435.480235 -321.789183 
L 435.486974 -311.218528 
L 435.489761 -300.647873 
L 435.486097 -290.077218 
L 435.488187 -279.506563 
L 435.469874 -268.935907 
L 435.437943 -258.365252 
L 435.42072 -247.794597 
L 435.416735 -237.223942 
L 435.416302 -226.653287 
L 435.416279 -216.082632 
L 435.416279 -205.511977 
L 435.416279 -194.941321 
L 435.416286 -184.370666 
L 435.416464 -173.800011 
L 435.41854 -163.229356 
L 435.430107 -152.658701 
L 435.458603 -142.088046 
L 435.481132 -131.517391 
L 435.46637 -120.946735 
L 435.439341 -110.37608 
L 435.441449 -99.805425 
L 435.47935 -89.23477 
L 435.525926 -78.664115 
L 435.559308 -68.09346 
L 435.603428 -57.522804 
L 435.675763 -46.952149 
L 435.806978 -36.381494 
L 436.120354 -25.810839 
L 436.553303 -15.240184 
L 436.841311 -4.669529 
L 437.079873 5.901126 
L 437.43307 16.471782 
L 437.921525 27.042437 
L 438.892971 37.613092 
L 440.550847 48.183747 
L 442.625617 58.754402 
L 445.072313 69.325057 
L 448.211005 79.895712 
L 451.741234 90.466368 
L 454.818906 101.037023 
L 457.440722 111.607678 
L 460.03208 122.178333 
L 462.031595 132.748988 
L 462.869322 143.319643 
L 462.859035 153.890298 
L 461.681388 164.460954 
L 457.312073 175.031609 
L 449.083199 185.602264 
z
" clip-path="url(#p81ce9bac24)" style="fill: #fae3a0; fill-opacity: 0.7; stroke: #e69f00; stroke-opacity: 0.7"/>
   </g>
   <g id="matplotlib.axis_3">
    <g id="xtick_3">
     <g id="line2d_16"/>
     <g id="text_20">
      <!-- Soft -->
      <g transform="translate(319.646959 193.757406) scale(0.065 -0.065)">
       <use xlink:href="#HelveticaNeue-53"/>
       <use xlink:href="#HelveticaNeue-6f" transform="translate(64.799988 0)"/>
       <use xlink:href="#HelveticaNeue-66" transform="translate(122.199982 0)"/>
       <use xlink:href="#HelveticaNeue-74" transform="translate(151.799973 0)"/>
      </g>
     </g>
    </g>
    <g id="xtick_4">
     <g id="line2d_17"/>
     <g id="text_21">
      <!-- Mix -->
      <g transform="translate(430.180732 193.757406) scale(0.065 -0.065)">
       <use xlink:href="#HelveticaNeue-4d"/>
       <use xlink:href="#HelveticaNeue-69" transform="translate(87.099991 0)"/>
       <use xlink:href="#HelveticaNeue-78" transform="translate(109.299988 0)"/>
      </g>
     </g>
    </g>
   </g>
   <g id="matplotlib.axis_4">
    <g id="ytick_10">
     <g id="line2d_18">
      <g>
       <use xlink:href="#m3a3ed6182b" x="289.915152" y="185.616" style="stroke: #000000; stroke-width: 0.6"/>
      </g>
     </g>
     <g id="text_22">
      <!-- 0.00 -->
      <g transform="translate(271.267574 187.936703) scale(0.065 -0.065)">
       <use xlink:href="#HelveticaNeue-30"/>
       <use xlink:href="#HelveticaNeue-2e" transform="translate(55.599991 0)"/>
       <use xlink:href="#HelveticaNeue-30" transform="translate(83.399979 0)"/>
       <use xlink:href="#HelveticaNeue-30" transform="translate(138.999969 0)"/>
      </g>
     </g>
    </g>
    <g id="ytick_11">
     <g id="line2d_19">
      <g>
       <use xlink:href="#m3a3ed6182b" x="289.915152" y="165.712665" style="stroke: #000000; stroke-width: 0.6"/>
      </g>
     </g>
     <g id="text_23">
      <!-- 0.20 -->
      <g transform="translate(271.267574 168.033368) scale(0.065 -0.065)">
       <use xlink:href="#HelveticaNeue-30"/>
       <use xlink:href="#HelveticaNeue-2e" transform="translate(55.599991 0)"/>
       <use xlink:href="#HelveticaNeue-32" transform="translate(83.399979 0)"/>
       <use xlink:href="#HelveticaNeue-30" transform="translate(138.999969 0)"/>
      </g>
     </g>
    </g>
    <g id="ytick_12">
     <g id="line2d_20">
      <g>
       <use xlink:href="#m3a3ed6182b" x="289.915152" y="145.809329" style="stroke: #000000; stroke-width: 0.6"/>
      </g>
     </g>
     <g id="text_24">
      <!-- 0.40 -->
      <g transform="translate(271.267574 148.130033) scale(0.065 -0.065)">
       <use xlink:href="#HelveticaNeue-30"/>
       <use xlink:href="#HelveticaNeue-2e" transform="translate(55.599991 0)"/>
       <use xlink:href="#HelveticaNeue-34" transform="translate(83.399979 0)"/>
       <use xlink:href="#HelveticaNeue-30" transform="translate(138.999969 0)"/>
      </g>
     </g>
    </g>
    <g id="ytick_13">
     <g id="line2d_21">
      <g>
       <use xlink:href="#m3a3ed6182b" x="289.915152" y="125.905994" style="stroke: #000000; stroke-width: 0.6"/>
      </g>
     </g>
     <g id="text_25">
      <!-- 0.60 -->
      <g transform="translate(271.267574 128.226697) scale(0.065 -0.065)">
       <use xlink:href="#HelveticaNeue-30"/>
       <use xlink:href="#HelveticaNeue-2e" transform="translate(55.599991 0)"/>
       <use xlink:href="#HelveticaNeue-36" transform="translate(83.399979 0)"/>
       <use xlink:href="#HelveticaNeue-30" transform="translate(138.999969 0)"/>
      </g>
     </g>
    </g>
    <g id="ytick_14">
     <g id="line2d_22">
      <g>
       <use xlink:href="#m3a3ed6182b" x="289.915152" y="106.002659" style="stroke: #000000; stroke-width: 0.6"/>
      </g>
     </g>
     <g id="text_26">
      <!-- 0.80 -->
      <g transform="translate(271.267574 108.323362) scale(0.065 -0.065)">
       <use xlink:href="#HelveticaNeue-30"/>
       <use xlink:href="#HelveticaNeue-2e" transform="translate(55.599991 0)"/>
       <use xlink:href="#HelveticaNeue-38" transform="translate(83.399979 0)"/>
       <use xlink:href="#HelveticaNeue-30" transform="translate(138.999969 0)"/>
      </g>
     </g>
    </g>
    <g id="ytick_15">
     <g id="line2d_23">
      <g>
       <use xlink:href="#m3a3ed6182b" x="289.915152" y="86.099324" style="stroke: #000000; stroke-width: 0.6"/>
      </g>
     </g>
     <g id="text_27">
      <!-- 1.00 -->
      <g transform="translate(271.267574 88.420027) scale(0.065 -0.065)">
       <use xlink:href="#HelveticaNeue-31"/>
       <use xlink:href="#HelveticaNeue-2e" transform="translate(55.599991 0)"/>
       <use xlink:href="#HelveticaNeue-30" transform="translate(83.399979 0)"/>
       <use xlink:href="#HelveticaNeue-30" transform="translate(138.999969 0)"/>
      </g>
     </g>
    </g>
    <g id="ytick_16">
     <g id="line2d_24">
      <g>
       <use xlink:href="#m3a3ed6182b" x="289.915152" y="66.195988" style="stroke: #000000; stroke-width: 0.6"/>
      </g>
     </g>
     <g id="text_28">
      <!-- 1.20 -->
      <g transform="translate(271.267574 68.516692) scale(0.065 -0.065)">
       <use xlink:href="#HelveticaNeue-31"/>
       <use xlink:href="#HelveticaNeue-2e" transform="translate(55.599991 0)"/>
       <use xlink:href="#HelveticaNeue-32" transform="translate(83.399979 0)"/>
       <use xlink:href="#HelveticaNeue-30" transform="translate(138.999969 0)"/>
      </g>
     </g>
    </g>
    <g id="ytick_17">
     <g id="line2d_25">
      <g>
       <use xlink:href="#m3a3ed6182b" x="289.915152" y="46.292653" style="stroke: #000000; stroke-width: 0.6"/>
      </g>
     </g>
     <g id="text_29">
      <!-- 1.40 -->
      <g transform="translate(271.267574 48.613356) scale(0.065 -0.065)">
       <use xlink:href="#HelveticaNeue-31"/>
       <use xlink:href="#HelveticaNeue-2e" transform="translate(55.599991 0)"/>
       <use xlink:href="#HelveticaNeue-34" transform="translate(83.399979 0)"/>
       <use xlink:href="#HelveticaNeue-30" transform="translate(138.999969 0)"/>
      </g>
     </g>
    </g>
    <g id="text_30">
     <!-- MSE -->
     <g transform="translate(265.888355 114.734453) rotate(-90) scale(0.07 -0.07)">
      <use xlink:href="#HelveticaNeue-4d"/>
      <use xlink:href="#HelveticaNeue-53" transform="translate(87.099991 0)"/>
      <use xlink:href="#HelveticaNeue-45" transform="translate(151.899979 0)"/>
     </g>
    </g>
   </g>
   <g id="LineCollection_3">
    <path d="M 311.877586 131.071313 
L 339.330629 131.071313 
" clip-path="url(#p81ce9bac24)" style="fill: none; stroke: #0072b2; stroke-width: 1.5"/>
   </g>
   <g id="LineCollection_4">
    <path d="M 421.689757 131.195745 
L 449.1428 131.195745 
" clip-path="url(#p81ce9bac24)" style="fill: none; stroke: #e69f00; stroke-width: 1.5"/>
   </g>
   <g id="patch_9">
    <path d="M 289.915152 185.616 
L 289.915152 28.944 
" style="fill: none; stroke: #000000; stroke-width: 0.6; stroke-linejoin: miter; stroke-linecap: square"/>
   </g>
   <g id="patch_10">
    <path d="M 289.915152 185.616 
L 471.105234 185.616 
" style="fill: none; stroke: #000000; stroke-width: 0.4; stroke-linejoin: miter; stroke-linecap: square"/>
   </g>
   <g id="text_31">
    <!-- b -->
    <g transform="translate(260.924739 16.569922) scale(0.09 -0.09)">
     <defs>
      <path id="HelveticaNeue-62" d="M 429 4570 
L 429 0 
L 973 0 
L 973 442 
L 986 442 
Q 1075 294 1206 195 
Q 1338 96 1485 38 
Q 1632 -19 1782 -44 
Q 1933 -70 2054 -70 
Q 2432 -70 2717 64 
Q 3002 198 3190 432 
Q 3379 666 3472 979 
Q 3565 1293 3565 1645 
Q 3565 1997 3469 2310 
Q 3373 2624 3184 2864 
Q 2995 3104 2710 3245 
Q 2426 3386 2042 3386 
Q 1696 3386 1408 3261 
Q 1120 3136 986 2861 
L 973 2861 
L 973 4570 
L 429 4570 
z
M 2989 1683 
Q 2989 1440 2937 1209 
Q 2886 979 2771 800 
Q 2656 621 2467 512 
Q 2278 403 1997 403 
Q 1715 403 1516 508 
Q 1318 614 1193 787 
Q 1069 960 1011 1187 
Q 954 1414 954 1658 
Q 954 1888 1008 2112 
Q 1062 2336 1184 2512 
Q 1306 2688 1498 2797 
Q 1690 2906 1965 2906 
Q 2227 2906 2422 2803 
Q 2618 2701 2742 2528 
Q 2867 2355 2928 2134 
Q 2989 1914 2989 1683 
z
" transform="scale(0.015625)"/>
     </defs>
     <use xlink:href="#HelveticaNeue-62"/>
    </g>
   </g>
   <g id="text_32">
    <!-- std=0.478 -->
    <g style="fill: #0072b2" transform="translate(313.202467 69.025526) scale(0.055 -0.055)">
     <use xlink:href="#HelveticaNeue-73"/>
     <use xlink:href="#HelveticaNeue-74" transform="translate(49.999985 0)"/>
     <use xlink:href="#HelveticaNeue-64" transform="translate(81.499969 0)"/>
     <use xlink:href="#HelveticaNeue-3d" transform="translate(140.799957 0)"/>
     <use xlink:href="#HelveticaNeue-30" transform="translate(200.799942 0)"/>
     <use xlink:href="#HelveticaNeue-2e" transform="translate(256.399933 0)"/>
     <use xlink:href="#HelveticaNeue-34" transform="translate(284.199921 0)"/>
     <use xlink:href="#HelveticaNeue-37" transform="translate(339.799911 0)"/>
     <use xlink:href="#HelveticaNeue-38" transform="translate(395.399902 0)"/>
    </g>
   </g>
   <g id="text_33">
    <!-- std=0.547 -->
    <g style="fill: #e69f00" transform="translate(423.014638 62.691165) scale(0.055 -0.055)">
     <use xlink:href="#HelveticaNeue-73"/>
     <use xlink:href="#HelveticaNeue-74" transform="translate(49.999985 0)"/>
     <use xlink:href="#HelveticaNeue-64" transform="translate(81.499969 0)"/>
     <use xlink:href="#HelveticaNeue-3d" transform="translate(140.799957 0)"/>
     <use xlink:href="#HelveticaNeue-30" transform="translate(200.799942 0)"/>
     <use xlink:href="#HelveticaNeue-2e" transform="translate(256.399933 0)"/>
     <use xlink:href="#HelveticaNeue-35" transform="translate(284.199921 0)"/>
     <use xlink:href="#HelveticaNeue-34" transform="translate(339.799911 0)"/>
     <use xlink:href="#HelveticaNeue-37" transform="translate(395.399902 0)"/>
    </g>
   </g>
   <g id="patch_11">
    <path d="M 328.387399 48.847335 
Q 380.511967 48.847335 432.636536 48.847335 
" style="fill: none; stroke: #555555; stroke-width: 0.7; stroke-linecap: round"/>
    <path d="M 330.787399 50.047335 
L 328.387399 48.847335 
L 330.787399 47.647335 
" style="fill: none; stroke: #555555; stroke-width: 0.7; stroke-linecap: round"/>
    <path d="M 430.236536 47.647335 
L 432.636536 48.847335 
L 430.236536 50.047335 
" style="fill: none; stroke: #555555; stroke-width: 0.7; stroke-linecap: round"/>
   </g>
   <g id="text_34">
    <!-- Δ = +0.005  (Mix lower) -->
    <g style="fill: #333333" transform="translate(352.205388 46.569463) scale(0.055 -0.055)">
     <use xlink:href="#HelveticaNeue-394"/>
     <use xlink:href="#HelveticaNeue-20" transform="translate(64.799988 0)"/>
     <use xlink:href="#HelveticaNeue-3d" transform="translate(92.599976 0)"/>
     <use xlink:href="#HelveticaNeue-20" transform="translate(152.59996 0)"/>
     <use xlink:href="#HelveticaNeue-2b" transform="translate(180.399948 0)"/>
     <use xlink:href="#HelveticaNeue-30" transform="translate(240.399933 0)"/>
     <use xlink:href="#HelveticaNeue-2e" transform="translate(295.999924 0)"/>
     <use xlink:href="#HelveticaNeue-30" transform="translate(323.799911 0)"/>
     <use xlink:href="#HelveticaNeue-30" transform="translate(379.399902 0)"/>
     <use xlink:href="#HelveticaNeue-35" transform="translate(434.999893 0)"/>
     <use xlink:href="#HelveticaNeue-20" transform="translate(490.599884 0)"/>
     <use xlink:href="#HelveticaNeue-20" transform="translate(518.399872 0)"/>
     <use xlink:href="#HelveticaNeue-28" transform="translate(546.19986 0)"/>
     <use xlink:href="#HelveticaNeue-4d" transform="translate(572.099854 0)"/>
     <use xlink:href="#HelveticaNeue-69" transform="translate(659.199844 0)"/>
     <use xlink:href="#HelveticaNeue-78" transform="translate(681.399841 0)"/>
     <use xlink:href="#HelveticaNeue-20" transform="translate(733.199829 0)"/>
     <use xlink:href="#HelveticaNeue-6c" transform="translate(760.999817 0)"/>
     <use xlink:href="#HelveticaNeue-6f" transform="translate(783.199814 0)"/>
     <use xlink:href="#HelveticaNeue-77" transform="translate(840.599808 0)"/>
     <use xlink:href="#HelveticaNeue-65" transform="translate(916.399796 0)"/>
     <use xlink:href="#HelveticaNeue-72" transform="translate(970.099792 0)"/>
     <use xlink:href="#HelveticaNeue-29" transform="translate(1003.39978 0)"/>
    </g>
   </g>
   <g id="text_35">
    <!-- n = 1440 frames (Soft)  /  1440 frames (Mix) -->
    <g style="fill: #555555" transform="translate(327.412849 214.703676) scale(0.055 -0.055)">
     <defs>
      <path id="HelveticaNeue-6e" d="M 410 3309 
L 410 0 
L 954 0 
L 954 1869 
Q 954 2093 1014 2281 
Q 1075 2470 1196 2611 
Q 1318 2752 1500 2829 
Q 1683 2906 1933 2906 
Q 2246 2906 2425 2726 
Q 2605 2547 2605 2240 
L 2605 0 
L 3149 0 
L 3149 2176 
Q 3149 2445 3094 2665 
Q 3040 2886 2905 3046 
Q 2771 3206 2553 3296 
Q 2336 3386 2010 3386 
Q 1274 3386 934 2784 
L 922 2784 
L 922 3309 
L 410 3309 
z
" transform="scale(0.015625)"/>
      <path id="HelveticaNeue-6d" d="M 410 3309 
L 410 0 
L 954 0 
L 954 2061 
Q 954 2157 1002 2301 
Q 1050 2445 1155 2579 
Q 1261 2714 1430 2810 
Q 1600 2906 1837 2906 
Q 2022 2906 2140 2851 
Q 2259 2797 2329 2697 
Q 2400 2598 2429 2464 
Q 2458 2330 2458 2170 
L 2458 0 
L 3002 0 
L 3002 2061 
Q 3002 2445 3232 2675 
Q 3462 2906 3866 2906 
Q 4064 2906 4189 2848 
Q 4314 2790 4384 2691 
Q 4454 2592 4480 2457 
Q 4506 2323 4506 2170 
L 4506 0 
L 5050 0 
L 5050 2426 
Q 5050 2682 4970 2864 
Q 4890 3046 4746 3161 
Q 4602 3277 4400 3331 
Q 4198 3386 3949 3386 
Q 3622 3386 3350 3238 
Q 3078 3091 2912 2822 
Q 2810 3130 2560 3258 
Q 2310 3386 2003 3386 
Q 1306 3386 934 2822 
L 922 2822 
L 922 3309 
L 410 3309 
z
" transform="scale(0.015625)"/>
     </defs>
     <use xlink:href="#HelveticaNeue-6e"/>
     <use xlink:href="#HelveticaNeue-20" transform="translate(55.599991 0)"/>
     <use xlink:href="#HelveticaNeue-3d" transform="translate(83.399979 0)"/>
     <use xlink:href="#HelveticaNeue-20" transform="translate(143.399963 0)"/>
     <use xlink:href="#HelveticaNeue-31" transform="translate(171.199951 0)"/>
     <use xlink:href="#HelveticaNeue-34" transform="translate(226.799942 0)"/>
     <use xlink:href="#HelveticaNeue-34" transform="translate(282.399933 0)"/>
     <use xlink:href="#HelveticaNeue-30" transform="translate(337.999924 0)"/>
     <use xlink:href="#HelveticaNeue-20" transform="translate(393.599915 0)"/>
     <use xlink:href="#HelveticaNeue-66" transform="translate(421.399902 0)"/>
     <use xlink:href="#HelveticaNeue-72" transform="translate(450.999893 0)"/>
     <use xlink:href="#HelveticaNeue-61" transform="translate(484.299881 0)"/>
     <use xlink:href="#HelveticaNeue-6d" transform="translate(537.999878 0)"/>
     <use xlink:href="#HelveticaNeue-65" transform="translate(623.299866 0)"/>
     <use xlink:href="#HelveticaNeue-73" transform="translate(676.999863 0)"/>
     <use xlink:href="#HelveticaNeue-20" transform="translate(726.999847 0)"/>
     <use xlink:href="#HelveticaNeue-28" transform="translate(754.799835 0)"/>
     <use xlink:href="#HelveticaNeue-53" transform="translate(780.699829 0)"/>
     <use xlink:href="#HelveticaNeue-6f" transform="translate(845.499817 0)"/>
     <use xlink:href="#HelveticaNeue-66" transform="translate(902.899811 0)"/>
     <use xlink:href="#HelveticaNeue-74" transform="translate(932.499802 0)"/>
     <use xlink:href="#HelveticaNeue-29" transform="translate(963.999786 0)"/>
     <use xlink:href="#HelveticaNeue-20" transform="translate(989.89978 0)"/>
     <use xlink:href="#HelveticaNeue-20" transform="translate(1017.699768 0)"/>
     <use xlink:href="#HelveticaNeue-2f" transform="translate(1045.499756 0)"/>
     <use xlink:href="#HelveticaNeue-20" transform="translate(1078.799744 0)"/>
     <use xlink:href="#HelveticaNeue-20" transform="translate(1106.599731 0)"/>
     <use xlink:href="#HelveticaNeue-31" transform="translate(1134.399719 0)"/>
     <use xlink:href="#HelveticaNeue-34" transform="translate(1189.99971 0)"/>
     <use xlink:href="#HelveticaNeue-34" transform="translate(1245.599701 0)"/>
     <use xlink:href="#HelveticaNeue-30" transform="translate(1301.199692 0)"/>
     <use xlink:href="#HelveticaNeue-20" transform="translate(1356.799683 0)"/>
     <use xlink:href="#HelveticaNeue-66" transform="translate(1384.59967 0)"/>
     <use xlink:href="#HelveticaNeue-72" transform="translate(1414.199661 0)"/>
     <use xlink:href="#HelveticaNeue-61" transform="translate(1447.499649 0)"/>
     <use xlink:href="#HelveticaNeue-6d" transform="translate(1501.199646 0)"/>
     <use xlink:href="#HelveticaNeue-65" transform="translate(1586.499634 0)"/>
     <use xlink:href="#HelveticaNeue-73" transform="translate(1640.199631 0)"/>
     <use xlink:href="#HelveticaNeue-20" transform="translate(1690.199615 0)"/>
     <use xlink:href="#HelveticaNeue-28" transform="translate(1717.999603 0)"/>
     <use xlink:href="#HelveticaNeue-4d" transform="translate(1743.899597 0)"/>
     <use xlink:href="#HelveticaNeue-69" transform="translate(1830.999588 0)"/>
     <use xlink:href="#HelveticaNeue-78" transform="translate(1853.199585 0)"/>
     <use xlink:href="#HelveticaNeue-29" transform="translate(1904.999573 0)"/>
    </g>
   </g>
   <g id="text_36">
    <!-- Frame-level MSE $\|\mathbf{y}(t) - \mathbf{y}^*\|^2$ -->
    <g transform="translate(328.835193 24.944) scale(0.075 -0.075)">
     <defs>
      <path id="HelveticaNeue-46" d="M 499 4570 
L 499 0 
L 1107 0 
L 1107 2093 
L 3206 2093 
L 3206 2605 
L 1107 2605 
L 1107 4058 
L 3501 4058 
L 3501 4570 
L 499 4570 
z
" transform="scale(0.015625)"/>
      <path id="HelveticaNeue-76" d="M 1901 0 
L 3110 3309 
L 2541 3309 
L 1638 550 
L 1626 550 
L 698 3309 
L 90 3309 
L 1318 0 
L 1901 0 
z
" transform="scale(0.015625)"/>
      <path id="DejaVuSans-28" d="M 1984 4856 
Q 1566 4138 1362 3434 
Q 1159 2731 1159 2009 
Q 1159 1288 1364 580 
Q 1569 -128 1984 -844 
L 1484 -844 
Q 1016 -109 783 600 
Q 550 1309 550 2009 
Q 550 2706 781 3412 
Q 1013 4119 1484 4856 
L 1984 4856 
z
" transform="scale(0.015625)"/>
      <path id="DejaVuSans-Oblique-74" d="M 2706 3500 
L 2619 3053 
L 1472 3053 
L 1100 1153 
Q 1081 1047 1072 975 
Q 1063 903 1063 863 
Q 1063 663 1183 572 
Q 1303 481 1569 481 
L 2150 481 
L 2053 0 
L 1503 0 
Q 991 0 739 200 
Q 488 400 488 806 
Q 488 878 497 964 
Q 506 1050 525 1153 
L 897 3053 
L 409 3053 
L 500 3500 
L 978 3500 
L 1172 4494 
L 1747 4494 
L 1556 3500 
L 2706 3500 
z
" transform="scale(0.015625)"/>
      <path id="DejaVuSans-29" d="M 513 4856 
L 1013 4856 
Q 1481 4119 1714 3412 
Q 1947 2706 1947 2009 
Q 1947 1309 1714 600 
Q 1481 -109 1013 -844 
L 513 -844 
Q 928 -128 1133 580 
Q 1338 1288 1338 2009 
Q 1338 2731 1133 3434 
Q 928 4138 513 4856 
z
" transform="scale(0.015625)"/>
     </defs>
     <use xlink:href="#HelveticaNeue-46" transform="translate(0 0.765625)"/>
     <use xlink:href="#HelveticaNeue-72" transform="translate(57.399994 0.765625)"/>
     <use xlink:href="#HelveticaNeue-61" transform="translate(90.699982 0.765625)"/>
     <use xlink:href="#HelveticaNeue-6d" transform="translate(144.399979 0.765625)"/>
     <use xlink:href="#HelveticaNeue-65" transform="translate(229.699966 0.765625)"/>
     <use xlink:href="#HelveticaNeue-2d" transform="translate(283.399963 0.765625)"/>
     <use xlink:href="#HelveticaNeue-6c" transform="translate(322.299957 0.765625)"/>
     <use xlink:href="#HelveticaNeue-65" transform="translate(344.499954 0.765625)"/>
     <use xlink:href="#HelveticaNeue-76" transform="translate(398.199951 0.765625)"/>
     <use xlink:href="#HelveticaNeue-65" transform="translate(448.199936 0.765625)"/>
     <use xlink:href="#HelveticaNeue-6c" transform="translate(501.899933 0.765625)"/>
     <use xlink:href="#HelveticaNeue-20" transform="translate(524.09993 0.765625)"/>
     <use xlink:href="#HelveticaNeue-4d" transform="translate(551.899918 0.765625)"/>
     <use xlink:href="#HelveticaNeue-53" transform="translate(638.999908 0.765625)"/>
     <use xlink:href="#HelveticaNeue-45" transform="translate(703.799896 0.765625)"/>
     <use xlink:href="#HelveticaNeue-20" transform="translate(764.899887 0.765625)"/>
     <use xlink:href="#DejaVuSans-2016" transform="translate(792.699875 0.765625)"/>
     <use xlink:href="#DejaVuSans-Bold-79" transform="translate(842.699875 0.765625)"/>
     <use xlink:href="#DejaVuSans-28" transform="translate(907.885422 0.765625)"/>
     <use xlink:href="#DejaVuSans-Oblique-74" transform="translate(946.899094 0.765625)"/>
     <use xlink:href="#DejaVuSans-29" transform="translate(986.108078 0.765625)"/>
     <use xlink:href="#DejaVuSans-2212" transform="translate(1044.604172 0.765625)"/>
     <use xlink:href="#DejaVuSans-Bold-79" transform="translate(1147.875656 0.765625)"/>
     <use xlink:href="#DejaVuSans-2a" transform="translate(1227.65593 39.046875) scale(0.7)"/>
     <use xlink:href="#DejaVuSans-2016" transform="translate(1279.028 0.765625)"/>
     <use xlink:href="#DejaVuSans-32" transform="translate(1329.985031 39.046875) scale(0.7)"/>
    </g>
   </g>
   <g id="LineCollection_5">
    <path d="M 325.604107 170.15173 
L 325.604107 75.085031 
" clip-path="url(#p81ce9bac24)" style="fill: none; stroke: #0072b2; stroke-width: 1.2"/>
   </g>
   <g id="line2d_26">
    <defs>
     <path id="m2ccc52efdf" d="M 3 0 
L -3 -0 
" style="stroke: #0072b2; stroke-width: 0.9"/>
    </defs>
    <g clip-path="url(#p81ce9bac24)">
     <use xlink:href="#m2ccc52efdf" x="325.604107" y="170.15173" style="fill: #1f77b4; stroke: #0072b2; stroke-width: 0.9"/>
    </g>
   </g>
   <g id="line2d_27">
    <g clip-path="url(#p81ce9bac24)">
     <use xlink:href="#m2ccc52efdf" x="325.604107" y="75.085031" style="fill: #1f77b4; stroke: #0072b2; stroke-width: 0.9"/>
    </g>
   </g>
   <g id="LineCollection_6">
    <path d="M 435.416279 177.531617 
L 435.416279 68.750671 
" clip-path="url(#p81ce9bac24)" style="fill: none; stroke: #e69f00; stroke-width: 1.2"/>
   </g>
   <g id="line2d_28">
    <defs>
     <path id="m76f8ea36ca" d="M 3 0 
L -3 -0 
" style="stroke: #e69f00; stroke-width: 0.9"/>
    </defs>
    <g clip-path="url(#p81ce9bac24)">
     <use xlink:href="#m76f8ea36ca" x="435.416279" y="177.531617" style="fill: #1f77b4; stroke: #e69f00; stroke-width: 0.9"/>
    </g>
   </g>
   <g id="line2d_29">
    <g clip-path="url(#p81ce9bac24)">
     <use xlink:href="#m76f8ea36ca" x="435.416279" y="68.750671" style="fill: #1f77b4; stroke: #e69f00; stroke-width: 0.9"/>
    </g>
   </g>
  </g>
  <g id="text_37">
   <!-- Soft vs Mix — 20g_soft_mix payload | a: n = 16 trials  |  b: n = 1440 frames -->
   <g style="fill: #333333" transform="translate(117.997891 9.101562) scale(0.07 -0.07)">
    <defs>
     <path id="HelveticaNeue-2014" d="M 832 2035 
L 832 1523 
L 5568 1523 
L 5568 2035 
L 832 2035 
z
" transform="scale(0.015625)"/>
     <path id="HelveticaNeue-67" d="M 3264 282 
L 3264 3309 
L 2752 3309 
L 2752 2835 
L 2746 2835 
Q 2598 3110 2336 3248 
Q 2074 3386 1760 3386 
Q 1331 3386 1036 3222 
Q 742 3059 563 2806 
Q 384 2554 307 2243 
Q 230 1933 230 1638 
Q 230 1299 323 995 
Q 416 691 601 464 
Q 787 237 1062 102 
Q 1338 -32 1709 -32 
Q 2029 -32 2313 112 
Q 2598 256 2739 563 
L 2752 563 
L 2752 346 
Q 2752 70 2697 -160 
Q 2643 -390 2521 -553 
Q 2400 -717 2214 -809 
Q 2029 -902 1760 -902 
Q 1626 -902 1478 -873 
Q 1331 -845 1206 -781 
Q 1082 -717 995 -614 
Q 909 -512 902 -365 
L 358 -365 
Q 371 -634 499 -819 
Q 627 -1005 822 -1120 
Q 1018 -1235 1258 -1286 
Q 1498 -1338 1728 -1338 
Q 2522 -1338 2893 -934 
Q 3264 -531 3264 282 
z
M 1741 442 
Q 1472 442 1293 554 
Q 1114 666 1005 848 
Q 896 1030 851 1254 
Q 806 1478 806 1702 
Q 806 1939 860 2156 
Q 915 2374 1033 2540 
Q 1152 2707 1337 2806 
Q 1523 2906 1786 2906 
Q 2042 2906 2221 2803 
Q 2400 2701 2512 2531 
Q 2624 2362 2675 2150 
Q 2726 1939 2726 1722 
Q 2726 1491 2672 1260 
Q 2618 1030 2502 848 
Q 2387 666 2198 554 
Q 2010 442 1741 442 
z
" transform="scale(0.015625)"/>
     <path id="HelveticaNeue-5f" d="M 0 -474 
L 0 -794 
L 3200 -794 
L 3200 -474 
L 0 -474 
z
" transform="scale(0.015625)"/>
     <path id="HelveticaNeue-70" d="M 429 3309 
L 429 -1261 
L 973 -1261 
L 973 442 
L 986 442 
Q 1075 294 1206 195 
Q 1338 96 1485 38 
Q 1632 -19 1782 -44 
Q 1933 -70 2054 -70 
Q 2432 -70 2717 64 
Q 3002 198 3190 432 
Q 3379 666 3472 979 
Q 3565 1293 3565 1645 
Q 3565 1997 3469 2310 
Q 3373 2624 3184 2864 
Q 2995 3104 2710 3245 
Q 2426 3386 2042 3386 
Q 1696 3386 1408 3261 
Q 1120 3136 986 2861 
L 973 2861 
L 973 3309 
L 429 3309 
z
M 2989 1683 
Q 2989 1440 2937 1209 
Q 2886 979 2771 800 
Q 2656 621 2467 512 
Q 2278 403 1997 403 
Q 1715 403 1516 508 
Q 1318 614 1193 787 
Q 1069 960 1011 1187 
Q 954 1414 954 1658 
Q 954 1888 1008 2112 
Q 1062 2336 1184 2512 
Q 1306 2688 1498 2797 
Q 1690 2906 1965 2906 
Q 2227 2906 2422 2803 
Q 2618 2701 2742 2528 
Q 2867 2355 2928 2134 
Q 2989 1914 2989 1683 
z
" transform="scale(0.015625)"/>
     <path id="HelveticaNeue-79" d="M 1709 -442 
Q 1613 -685 1520 -851 
Q 1427 -1018 1315 -1123 
Q 1203 -1229 1065 -1277 
Q 928 -1325 749 -1325 
Q 653 -1325 557 -1312 
Q 461 -1299 371 -1267 
L 371 -768 
Q 442 -800 534 -822 
Q 627 -845 691 -845 
Q 858 -845 970 -765 
Q 1082 -685 1139 -538 
L 1363 19 
L 51 3309 
L 666 3309 
L 1632 602 
L 1645 602 
L 2573 3309 
L 3149 3309 
L 1709 -442 
z
" transform="scale(0.015625)"/>
     <path id="HelveticaNeue-7c" d="M 493 5030 
L 493 -1363 
L 928 -1363 
L 928 5030 
L 493 5030 
z
" transform="scale(0.015625)"/>
     <path id="HelveticaNeue-3a" d="M 1242 2598 
L 1242 3309 
L 531 3309 
L 531 2598 
L 1242 2598 
z
M 531 710 
L 531 0 
L 1242 0 
L 1242 710 
L 531 710 
z
" transform="scale(0.015625)"/>
    </defs>
    <use xlink:href="#HelveticaNeue-53"/>
    <use xlink:href="#HelveticaNeue-6f" transform="translate(64.799988 0)"/>
    <use xlink:href="#HelveticaNeue-66" transform="translate(122.199982 0)"/>
    <use xlink:href="#HelveticaNeue-74" transform="translate(151.799973 0)"/>
    <use xlink:href="#HelveticaNeue-20" transform="translate(183.299957 0)"/>
    <use xlink:href="#HelveticaNeue-76" transform="translate(211.099945 0)"/>
    <use xlink:href="#HelveticaNeue-73" transform="translate(261.09993 0)"/>
    <use xlink:href="#HelveticaNeue-20" transform="translate(311.099915 0)"/>
    <use xlink:href="#HelveticaNeue-4d" transform="translate(338.899902 0)"/>
    <use xlink:href="#HelveticaNeue-69" transform="translate(425.999893 0)"/>
    <use xlink:href="#HelveticaNeue-78" transform="translate(448.19989 0)"/>
    <use xlink:href="#HelveticaNeue-20" transform="translate(499.999878 0)"/>
    <use xlink:href="#HelveticaNeue-2014" transform="translate(527.799866 0)"/>
    <use xlink:href="#HelveticaNeue-20" transform="translate(627.79985 0)"/>
    <use xlink:href="#HelveticaNeue-32" transform="translate(655.599838 0)"/>
    <use xlink:href="#HelveticaNeue-30" transform="translate(711.199829 0)"/>
    <use xlink:href="#HelveticaNeue-67" transform="translate(766.79982 0)"/>
    <use xlink:href="#HelveticaNeue-5f" transform="translate(824.199814 0)"/>
    <use xlink:href="#HelveticaNeue-73" transform="translate(874.199799 0)"/>
    <use xlink:href="#HelveticaNeue-6f" transform="translate(924.199783 0)"/>
    <use xlink:href="#HelveticaNeue-66" transform="translate(981.599777 0)"/>
    <use xlink:href="#HelveticaNeue-74" transform="translate(1011.199768 0)"/>
    <use xlink:href="#HelveticaNeue-5f" transform="translate(1042.699753 0)"/>
    <use xlink:href="#HelveticaNeue-6d" transform="translate(1092.699738 0)"/>
    <use xlink:href="#HelveticaNeue-69" transform="translate(1177.999725 0)"/>
    <use xlink:href="#HelveticaNeue-78" transform="translate(1200.199722 0)"/>
    <use xlink:href="#HelveticaNeue-20" transform="translate(1251.99971 0)"/>
    <use xlink:href="#HelveticaNeue-70" transform="translate(1279.799698 0)"/>
    <use xlink:href="#HelveticaNeue-61" transform="translate(1339.099686 0)"/>
    <use xlink:href="#HelveticaNeue-79" transform="translate(1392.799683 0)"/>
    <use xlink:href="#HelveticaNeue-6c" transform="translate(1442.799667 0)"/>
    <use xlink:href="#HelveticaNeue-6f" transform="translate(1464.999664 0)"/>
    <use xlink:href="#HelveticaNeue-61" transform="translate(1522.399658 0)"/>
    <use xlink:href="#HelveticaNeue-64" transform="translate(1576.099655 0)"/>
    <use xlink:href="#HelveticaNeue-20" transform="translate(1635.399643 0)"/>
    <use xlink:href="#HelveticaNeue-7c" transform="translate(1663.199631 0)"/>
    <use xlink:href="#HelveticaNeue-20" transform="translate(1685.399628 0)"/>
    <use xlink:href="#HelveticaNeue-61" transform="translate(1713.199615 0)"/>
    <use xlink:href="#HelveticaNeue-3a" transform="translate(1766.899612 0)"/>
    <use xlink:href="#HelveticaNeue-20" transform="translate(1794.6996 0)"/>
    <use xlink:href="#HelveticaNeue-6e" transform="translate(1822.499588 0)"/>
    <use xlink:href="#HelveticaNeue-20" transform="translate(1878.099579 0)"/>
    <use xlink:href="#HelveticaNeue-3d" transform="translate(1905.899567 0)"/>
    <use xlink:href="#HelveticaNeue-20" transform="translate(1965.899551 0)"/>
    <use xlink:href="#HelveticaNeue-31" transform="translate(1993.699539 0)"/>
    <use xlink:href="#HelveticaNeue-36" transform="translate(2049.29953 0)"/>
    <use xlink:href="#HelveticaNeue-20" transform="translate(2104.899521 0)"/>
    <use xlink:href="#HelveticaNeue-74" transform="translate(2132.699509 0)"/>
    <use xlink:href="#HelveticaNeue-72" transform="translate(2164.199493 0)"/>
    <use xlink:href="#HelveticaNeue-69" transform="translate(2197.499481 0)"/>
    <use xlink:href="#HelveticaNeue-61" transform="translate(2219.699478 0)"/>
    <use xlink:href="#HelveticaNeue-6c" transform="translate(2273.399475 0)"/>
    <use xlink:href="#HelveticaNeue-73" transform="translate(2295.599472 0)"/>
    <use xlink:href="#HelveticaNeue-20" transform="translate(2345.599457 0)"/>
    <use xlink:href="#HelveticaNeue-20" transform="translate(2373.399445 0)"/>
    <use xlink:href="#HelveticaNeue-7c" transform="translate(2401.199432 0)"/>
    <use xlink:href="#HelveticaNeue-20" transform="translate(2423.399429 0)"/>
    <use xlink:href="#HelveticaNeue-20" transform="translate(2451.199417 0)"/>
    <use xlink:href="#HelveticaNeue-62" transform="translate(2478.999405 0)"/>
    <use xlink:href="#HelveticaNeue-3a" transform="translate(2538.299393 0)"/>
    <use xlink:href="#HelveticaNeue-20" transform="translate(2566.09938 0)"/>
    <use xlink:href="#HelveticaNeue-6e" transform="translate(2593.899368 0)"/>
    <use xlink:href="#HelveticaNeue-20" transform="translate(2649.499359 0)"/>
    <use xlink:href="#HelveticaNeue-3d" transform="translate(2677.299347 0)"/>
    <use xlink:href="#HelveticaNeue-20" transform="translate(2737.299332 0)"/>
    <use xlink:href="#HelveticaNeue-31" transform="translate(2765.099319 0)"/>
    <use xlink:href="#HelveticaNeue-34" transform="translate(2820.69931 0)"/>
    <use xlink:href="#HelveticaNeue-34" transform="translate(2876.299301 0)"/>
    <use xlink:href="#HelveticaNeue-30" transform="translate(2931.899292 0)"/>
    <use xlink:href="#HelveticaNeue-20" transform="translate(2987.499283 0)"/>
    <use xlink:href="#HelveticaNeue-66" transform="translate(3015.299271 0)"/>
    <use xlink:href="#HelveticaNeue-72" transform="translate(3044.899261 0)"/>
    <use xlink:href="#HelveticaNeue-61" transform="translate(3078.199249 0)"/>
    <use xlink:href="#HelveticaNeue-6d" transform="translate(3131.899246 0)"/>
    <use xlink:href="#HelveticaNeue-65" transform="translate(3217.199234 0)"/>
    <use xlink:href="#HelveticaNeue-73" transform="translate(3270.899231 0)"/>
   </g>
  </g>
  <g id="legend_1">
   <g id="patch_12">
    <path d="M 417.707734 27.144219 
L 466.555234 27.144219 
Q 467.855234 27.144219 467.855234 25.844219 
L 467.855234 8.15 
Q 467.855234 6.85 466.555234 6.85 
L 417.707734 6.85 
Q 416.407734 6.85 416.407734 8.15 
L 416.407734 25.844219 
Q 416.407734 27.144219 417.707734 27.144219 
z
" style="fill: #ffffff; opacity: 0.9; stroke: #dddddd; stroke-linejoin: miter"/>
   </g>
   <g id="patch_13">
    <path d="M 419.007734 14.091406 
L 432.007734 14.091406 
L 432.007734 9.541406 
L 419.007734 9.541406 
z
" style="fill: #c6dcef; stroke: #0072b2; stroke-linejoin: miter"/>
   </g>
   <g id="text_38">
    <!-- Soft state -->
    <g transform="translate(437.207734 14.091406) scale(0.065 -0.065)">
     <use xlink:href="#HelveticaNeue-53"/>
     <use xlink:href="#HelveticaNeue-6f" transform="translate(64.799988 0)"/>
     <use xlink:href="#HelveticaNeue-66" transform="translate(122.199982 0)"/>
     <use xlink:href="#HelveticaNeue-74" transform="translate(151.799973 0)"/>
     <use xlink:href="#HelveticaNeue-20" transform="translate(183.299957 0)"/>
     <use xlink:href="#HelveticaNeue-73" transform="translate(211.099945 0)"/>
     <use xlink:href="#HelveticaNeue-74" transform="translate(261.09993 0)"/>
     <use xlink:href="#HelveticaNeue-61" transform="translate(292.599915 0)"/>
     <use xlink:href="#HelveticaNeue-74" transform="translate(346.299911 0)"/>
     <use xlink:href="#HelveticaNeue-65" transform="translate(377.799896 0)"/>
    </g>
   </g>
   <g id="patch_14">
    <path d="M 419.007734 23.263516 
L 432.007734 23.263516 
L 432.007734 18.713516 
L 419.007734 18.713516 
z
" style="fill: #fae3a0; stroke: #e69f00; stroke-linejoin: miter"/>
   </g>
   <g id="text_39">
    <!-- Mix state -->
    <g transform="translate(437.207734 23.263516) scale(0.065 -0.065)">
     <use xlink:href="#HelveticaNeue-4d"/>
     <use xlink:href="#HelveticaNeue-69" transform="translate(87.099991 0)"/>
     <use xlink:href="#HelveticaNeue-78" transform="translate(109.299988 0)"/>
     <use xlink:href="#HelveticaNeue-20" transform="translate(161.099976 0)"/>
     <use xlink:href="#HelveticaNeue-73" transform="translate(188.899963 0)"/>
     <use xlink:href="#HelveticaNeue-74" transform="translate(238.899948 0)"/>
     <use xlink:href="#HelveticaNeue-61" transform="translate(270.399933 0)"/>
     <use xlink:href="#HelveticaNeue-74" transform="translate(324.09993 0)"/>
     <use xlink:href="#HelveticaNeue-65" transform="translate(355.599915 0)"/>
    </g>
   </g>
  </g>
 </g>
 <defs>
  <clipPath id="p0827648c9e">
   <rect x="32.625234" y="28.944" width="181.190083" height="156.672"/>
  </clipPath>
  <clipPath id="p81ce9bac24">
   <rect x="289.915152" y="28.944" width="181.190083" height="156.672"/>
  </clipPath>
 </defs>
</svg>
